<?xml version="1.0" encoding="utf-8"?>
<!-- Generator: Adobe Illustrator 26.1.0, SVG Export Plug-In . SVG Version: 6.00 Build 0)  -->
<svg version="1.1" id="Capa_1" xmlns="http://www.w3.org/2000/svg" xmlns:xlink="http://www.w3.org/1999/xlink" x="0px" y="0px"
	 viewBox="0 0 2279.4 290.2" style="enable-background:new 0 0 2279.4 290.2;" xml:space="preserve">
<style type="text/css">
	.st0{fill-rule:evenodd;clip-rule:evenodd;fill:#E0E0E0;}
</style>
<g>
	<path class="st0" d="M74.2,1.6l39.1,39.9l39.9-39.9h73.4v102.2h-30.3l-10.4,12l10.4,11.2h30.3v24h-39.9l-73.4-73.4v23.1l66.2,67
		l47.1,0.8V190H170c-19.2-17.6-37.5-37.5-56.7-55.1v21.5l51.1,51.1l62.3,0.8v21.6h-71.8L114.1,190L75,229.9H0v-103h31.1l11.2-11.2
		l-11.2-12H0V81.4h41.5L59.1,99l11.2-12L48.7,65.4H0V41.5h55.9l29.5,28.7l12-11.2L63.9,24.7H0V1.6L74.2,1.6L74.2,1.6L74.2,1.6z
		 M1208.3,117.3h0.8l28.7-116.5l73.4-0.8l0.8,1.6l27.9,113.3l0.8,0.8c10.4-38.3,18.4-77.4,27.2-115.7h82.2l-62.3,229.9h-81.4
		l-31.1-110.2l-31.1,110.2h-80.6L1099.8,0h83L1208.3,117.3L1208.3,117.3z M1941,90.2l3.2,16V229H1870V126.9c-1.6-3.2-4-8-8.8-8.8
		c-6.4-2.4-13.6,0.8-18.4,5.6c-4.8,5.6-4,8-4,21.5c0,27.9,0.8,81.4,0,83.8h-71V67.8h70.2c0.8,8,1.6,10.4,1.6,20.8
		c15.2-18.4,35.9-28.7,61.5-24.7C1917.1,66.2,1933.8,75,1941,90.2z M1757.5,64.6l-0.8,61.5c-17.6-3.2-38.3-0.8-48.7,16.8
		c0,0-3.2,0.8-4.8,12v74.2h-73.4V68.6h72.6c0.8,7.2,0.8,12,1.6,20C1715.1,69.4,1735.1,60.7,1757.5,64.6L1757.5,64.6z M921,64.6v61.5
		c-18.4-3.2-39.1-0.8-48.7,16.8c0,0-3.2,0.8-4.8,12v74.2h-73.4V68.6h72.6c0,7.2,0.8,12,0.8,20C878.7,69.4,899.5,60.7,921,64.6
		L921,64.6z M2279.4,128.5c-16-4-35.1-1.6-46.3,10.4c-4,4.8-6.4,10.4-6.4,16.8v73.4h-75.8V68.6h72.6c1.6,5.6,0,14.4,1.6,19.2
		c12-19.2,33.5-26.3,54.3-22.4L2279.4,128.5L2279.4,128.5L2279.4,128.5z M2127,100.6c10.4,16.8,15.2,33.5,13.6,59.1h-113.3
		c-0.8,6.4,0,14.4,4.8,20c4.8,5.6,11.2,8.8,19.2,8c7.2,0,12.8-6.4,16.8-12.8h71.8c-3.2,23.2-24.7,42.3-46.3,50.3
		c-35.9,13.6-87,14.4-116.5-15.2c-23.2-20.8-29.5-55.1-20-85.4c5.6-25.5,27.9-47.1,51.9-55.9C2049.5,55.9,2103,60.7,2127,100.6
		L2127,100.6z M2040.8,109.3c-8,3.2-12.8,12.8-12.8,20.8h38.3c0-8-2.4-13.6-7.2-18.4C2054.3,107.8,2046.4,107.8,2040.8,109.3
		L2040.8,109.3z M776.6,116.5c12.8,30.3,6.4,70.3-17.6,93.4c-28.7,29.5-78.2,32.7-114.1,17.6c-30.3-11.2-50.3-43.1-51.9-74.2
		c0.8-31.1,16.8-59.9,44.7-75.8c34.3-17.6,85.4-16,116.5,8.8C764.6,95,771,105.4,776.6,116.5L776.6,116.5z M684.8,126.1
		c-8.8,1.6-16,8.8-18.4,17.6c-2.4,10.4,0,20.8,8,27.9c5.6,3.2,10.4,5.6,17.6,4.8c8.8-0.8,16.8-8,19.2-16c3.2-12,1.6-23.2-9.6-31.1
		C696.7,126.1,690.4,125.3,684.8,126.1L684.8,126.1z M1035.9,87c2.4-9.6,0.8-8.8,1.6-16.8c0,0,49.5,0,75-0.8v158
		c0.8,23.2-17.6,42.3-37.5,51.1c-33.5,15.1-76.6,15.1-110.1,2.4c-17.6-8-35.9-25.5-39.9-44.7h72.6c2.4,4,7.2,8.8,12,10.4
		c10.7,2.5,21.8-2.4,27.1-12c3.2-7.2,3.2-15.2,1.6-23.9c-20.8,17.6-55.1,20.8-79,7.2c-28.7-16-37.5-47.1-35.1-79
		c0.8-26.3,15.2-52.7,40.7-63.9C986.5,64.6,1019.2,67.8,1035.9,87L1035.9,87z M1024.8,127.7c-7.2-4-17.6-1.6-23.2,4.8
		c-6.4,5.6-8,14.4-5.6,22.3c2.4,8,8,13.6,18.4,15.2c6.4,0.8,11.2-0.8,16.8-4.8c8.8-8,8-16,6.4-25.6
		C1035.2,134.1,1030.4,129.3,1024.8,127.7L1024.8,127.7z M1537.2,83.8c0.8-8,0-10.4,0.8-15.2h75.8c0.8,49.5,0.8,106.2,0.8,160.4
		H1538c0-8.8-0.8-8-0.8-18.3c-14.4,16.7-34.3,27.1-58.3,23.1c-21.6-3.2-42.3-20.8-49.5-42.3c-12-33.5-12-82.2,15.1-108.6
		c16.8-18.4,45.5-24.7,68.6-15.2C1522,71,1528.4,75.8,1537.2,83.8L1537.2,83.8z M1516.4,126.9c-6.4,0-12.8,3.2-17.6,8.8
		c-4,7.2-5.6,16.8-2.4,23.9c3.2,5.6,8.8,8.8,14.4,11.2c8.8,1.6,17.6,0,23.2-7.2c5.6-6.4,6.4-17.6,3.2-24.7
		C1533.2,130.9,1525.2,127.7,1516.4,126.9L1516.4,126.9z M497.2,0.8c28.7,0,59.9,7.2,73.4,35.1c7.2,16.8,6.4,38.3-4.8,52.7
		c-6.4,11.2-17.6,14.4-26.3,21.5c16.8,5.6,35.1,13.6,43.1,31.9c9.6,21.6,3.2,49.5-12.8,67.1c-16.8,15.1-38.3,20.8-61.5,20.8H380.7
		V0.8H497.2L497.2,0.8z M463.7,54.3v31.9c12.8-1.6,30.3,4.8,36.7-9.6c0.8-4,2.4-6.4,0-12.8C494,49.5,476.5,55.9,463.7,54.3z
		 M463.7,139.7v36.7c13.6-1.6,33.5,5.6,37.5-12c1.6-5.6,1.6-12.8-1.6-16.8C492.4,135.7,476.5,140.5,463.7,139.7z"/>
</g>
</svg>
