<?xml version="1.0" encoding="UTF-8"?><svg xmlns="http://www.w3.org/2000/svg" viewBox="0 0 579.26 400"><defs><style>.d{fill:#e0e0e0;}</style></defs><g id="a"/><g id="b"><g id="c"><path class="d" d="M578.33,182.52L470.61,3.16c-1.84-3.07-5.85-4.08-8.93-2.24l-19.06,11.36c-3.01,1.79-4.06,5.61-2.4,8.69l10.48,19.43-16.98,3.62-119.4-13.23c-.67-.07-1.35-.1-2-.1l-74.78,.92c-2.53,.03-5.05,.66-7.3,1.81l-8.01,4.12-17.98,26.97-55.37-30.58c-4.06-2.24-8.67-2.56-12.78-1.28l5.84-10.24c1.75-3.07,.7-7.03-2.33-8.83l-14.82-8.82c-1.52-.9-3.29-1.15-5-.7-1.71,.45-3.13,1.55-4,3.09L.85,209.61c-.87,1.53-1.08,3.31-.6,5.01,.48,1.7,1.6,3.09,3.15,3.94l16.42,8.94c1,.54,2.07,.8,3.13,.8,2.22,0,4.36-1.14,5.59-3.17l4.37-7.29c.89,4.61,3.73,8.81,8.15,11.25l22.07,12.2-12.65,21.92c-2.19,3.79-2.77,8.2-1.64,12.43,1.13,4.23,3.84,7.76,7.63,9.95l25,14.43c2.57,1.49,5.39,2.19,8.16,2.19,1.65,0,3.29-.28,4.85-.76l-3.12,5.41c-2.19,3.79-2.77,8.2-1.64,12.43,1.13,4.23,3.84,7.76,7.63,9.95l25,14.43c2.57,1.49,5.39,2.19,8.16,2.19s5.45-.7,7.87-2.01c-.18,1.92-.04,3.87,.48,5.79,1.13,4.23,3.84,7.76,7.63,9.95l25,14.43c2.57,1.49,5.39,2.19,8.16,2.19,4.15,0,8.21-1.59,11.28-4.49,.74,4.73,3.52,9.1,7.98,11.67l25,14.43c2.57,1.49,5.39,2.19,8.16,2.19,5.67,0,11.18-2.94,14.21-8.19l21.75-37.67,14.34,8.26,56.21,31.05c2.46,1.36,5.16,2.05,7.9,2.05,1.52,0,3.06-.22,4.56-.65,4.21-1.21,7.69-3.99,9.8-7.82l5.11-9.25c2.12-3.83,2.61-8.26,1.4-12.46-.07-.24-.16-.48-.24-.72l17.47,9.65c2.51,1.38,5.22,2.04,7.9,2.04,5.77,0,11.38-3.05,14.37-8.46l12.04-21.8c2.12-3.83,2.61-8.25,1.4-12.46-.06-.21-.14-.42-.21-.62l11.91,6.58c2.46,1.36,5.16,2.05,7.9,2.05,1.52,0,3.06-.22,4.56-.65,4.21-1.21,7.69-3.99,9.8-7.82l15.49-28.04c2.12-3.83,2.61-8.26,1.4-12.46-.1-.36-.23-.7-.36-1.05,1.96,.8,4.04,1.21,6.13,1.21,1.52,0,3.06-.22,4.56-.65,4.21-1.21,7.69-3.99,9.8-7.82l17.99-32.56c2.12-3.83,2.61-8.26,1.4-12.46-.9-3.11-2.65-5.81-5.05-7.87l35.21-23.82c3.59-2.43,5.93-6.08,6.8-10.06l1.53,2.63c.89,1.53,2.33,2.61,4.04,3.04,1.71,.43,3.49,.16,5-.77l17.93-11.01c3.03-1.86,4.01-5.86,2.18-8.91ZM24.81,222.89c-.6,1-1.88,1.35-2.9,.79l-16.42-8.94c-.52-.28-.89-.75-1.05-1.31-.16-.56-.09-1.16,.2-1.67L119.56,9.28c.29-.51,.77-.88,1.33-1.03,.57-.15,1.16-.07,1.67,.23l14.82,8.82c1.01,.6,1.36,1.92,.78,2.94l-10.61,18.61c-.33,.48-.65,.97-.93,1.49L37.11,202.37l-12.3,20.52Zm58.84,73.36l-25-14.43c-2.78-1.61-4.78-4.2-5.61-7.31-.83-3.11-.41-6.35,1.2-9.13l24.19-41.91c3.32-5.75,10.7-7.72,16.44-4.41l25,14.43c2.78,1.61,4.78,4.2,5.61,7.31,.75,2.79,.47,5.69-.76,8.26l-25.15,43.56c-3.52,5.13-10.46,6.78-15.93,3.62Zm40.89,43.65l-25-14.43c-2.78-1.61-4.78-4.2-5.61-7.31-.83-3.11-.4-6.35,1.2-9.13l8.33-14.42c.13-.2,.27-.38,.39-.58l24.19-41.91c.16-.28,.3-.57,.44-.86l14.84-25.71c1.61-2.78,4.2-4.78,7.31-5.61,3.1-.83,6.35-.41,9.13,1.2l25,14.43c5.75,3.32,7.72,10.69,4.41,16.44l-48.2,83.49c-1.61,2.78-4.2,4.78-7.31,5.61-3.11,.83-6.35,.4-9.13-1.2Zm49.14,30.34l-25-14.43c-2.78-1.61-4.78-4.2-5.61-7.31-.83-3.11-.41-6.35,1.2-9.13l37.13-64.31c3.32-5.75,10.7-7.72,16.44-4.41l25,14.43c5.75,3.32,7.72,10.7,4.41,16.44l-37.13,64.31c-3.32,5.75-10.7,7.72-16.44,4.41Zm68.87,19.4c-1.61,2.78-4.2,4.78-7.31,5.61-3.11,.83-6.35,.4-9.13-1.2l-25-14.43c-5.75-3.32-7.72-10.69-4.41-16.44l25.81-44.7c1.61-2.78,4.2-4.78,7.31-5.61,3.1-.84,6.35-.41,9.13,1.2l25,14.43c5.75,3.32,7.72,10.69,4.41,16.44l-25.81,44.7ZM506.51,240.5c.89,3.09,.53,6.34-1.03,9.16l-17.98,32.56c-1.55,2.81-4.11,4.85-7.2,5.75-3.09,.89-6.34,.52-9.15-1.03l-110.87-61.25-.08,.15-2.95-1.63-2.1,3.8,106.11,58.62c5.81,3.21,7.92,10.55,4.71,16.35l-15.49,28.04c-1.55,2.81-4.11,4.85-7.2,5.74-3.09,.89-6.34,.52-9.15-1.03l-21.46-11.85c-.06-.03-.11-.07-.16-.1l-83-45.85h0l-1.48-.81-2.1,3.8,84.65,46.76c2.73,1.56,4.71,4.07,5.58,7.1,.89,3.09,.52,6.34-1.03,9.15l-12.04,21.8c-1.55,2.81-4.11,4.85-7.2,5.74-3.09,.89-6.34,.52-9.15-1.03l-83-45.85-.03,.05-.33-.18-2.1,3.8,56.21,31.05c2.81,1.55,4.85,4.11,5.75,7.2,.89,3.09,.52,6.34-1.03,9.15l-5.11,9.25c-1.55,2.81-4.11,4.85-7.2,5.74-3.09,.89-6.34,.52-9.15-1.03l-56.18-31.03-14.31-8.24,1.89-3.27c2.19-3.79,2.77-8.2,1.64-12.43-1.13-4.23-3.84-7.76-7.63-9.95l-25-14.43c-3.79-2.19-8.2-2.77-12.43-1.64-.23,.06-.44,.14-.66,.21l2.99-5.18c4.51-7.82,1.83-17.86-6-22.38l-25-14.43c-4.33-2.5-9.33-2.78-13.7-1.22l6.63-11.49c2.19-3.79,2.77-8.2,1.64-12.43-1.13-4.23-3.84-7.76-7.63-9.95l-25-14.43c-3.79-2.19-8.2-2.77-12.43-1.64-4.23,1.13-7.76,3.84-9.95,7.63l-9.76,16.91c-.05-.2-.07-.39-.13-.59-1.13-4.23-3.84-7.76-7.63-9.95l-25-14.43c-7.82-4.51-17.86-1.83-22.38,6l-9.37,16.22-22.14-12.24c-5.81-3.21-7.92-10.55-4.71-16.35L127.74,47.3h0l3.45-6.06c3.5-4.87,10.19-6.48,15.58-3.5l55.05,30.41-38.48,57.7c-2.36,3.53-3.24,7.78-2.5,11.96l2.09,11.76c1.46,8.18,8.83,14,17.11,13.48l25.52-1.53c3.04-.18,5.96-1.21,8.45-2.96l26.83-18.91c1.71-1.2,3.15-2.7,4.29-4.46l9.7-14.91c1.35-2.07,3.27-3.66,5.56-4.59l10.13-4.11c3.53-1.44,7.58-1.1,10.83,.9l200.64,123.32c2.63,1.61,5.6,2.42,8.57,2.42,3.21,0,6.42-.94,9.18-2.81l2.1-1.42c2.25,1.57,3.89,3.84,4.66,6.52Zm31.9-36.49l-41.09,27.79c-3.9,2.64-9.02,2.76-13.04,.28l-200.64-123.32c-2.61-1.6-5.59-2.42-8.59-2.42-2.09,0-4.18,.4-6.15,1.2l-10.13,4.11c-3.12,1.27-5.73,3.42-7.57,6.24l-9.7,14.91c-.84,1.29-1.9,2.39-3.16,3.27l-26.83,18.91c-1.83,1.29-3.98,2.04-6.21,2.18l-25.52,1.53c-6.13,.36-11.5-3.89-12.57-9.9l-2.09-11.76c-.55-3.07,.1-6.19,1.84-8.79l58.26-87.36,7.01-3.61c1.65-.85,3.5-1.31,5.36-1.33l74.78-.92c.49-.01,.98,.02,1.47,.07l119.73,13.27h.25l19.31-4.06,20.06,24.39,68.89,119.31c3.14,5.44,1.53,12.47-3.68,15.99Zm35.47-16.28l-17.93,11.01c-.5,.31-1.09,.4-1.67,.26-.57-.14-1.05-.5-1.35-1.01l-7.09-12.14-68.66-118.9v-.21l-21.4-26.02-11.75-21.8c-.55-1.03-.2-2.3,.8-2.9l19.06-11.36c1.03-.62,2.36-.28,2.98,.75l107.72,179.36c.61,1.02,.28,2.35-.73,2.97Z"/></g></g></svg>