<?xml version="1.0" encoding="utf-8"?>
<!-- Generator: Adobe Illustrator 26.1.0, SVG Export Plug-In . SVG Version: 6.00 Build 0)  -->
<svg version="1.1" id="Capa_1" xmlns="http://www.w3.org/2000/svg" xmlns:xlink="http://www.w3.org/1999/xlink" x="0px" y="0px"
	 viewBox="0 0 2279.4 845.8" style="enable-background:new 0 0 2279.4 845.8;" xml:space="preserve">
<style type="text/css">
	.st0{fill-rule:evenodd;clip-rule:evenodd;fill:#E0E0E0;}
</style>
<g>
	<path class="st0" d="M424.2,343h-83.6v148.8h82.4C606.1,494.2,606.1,339.3,424.2,343z M424.2,343h-83.6v148.8h82.4
		C606.1,494.2,606.1,339.3,424.2,343z M424.2,343h-83.6v148.8h82.4C606.1,494.2,606.1,339.3,424.2,343z M1377,343h-70.1v67.6h70.1
		C1471.7,410.6,1470.4,343,1377,343z M424.2,343h-83.6v148.8h82.4C606.1,494.2,606.1,339.3,424.2,343z M1377,343h-70.1v67.6h70.1
		C1471.7,410.6,1470.4,343,1377,343z M424.2,343h-83.6v148.8h82.4C606.1,494.2,606.1,339.3,424.2,343z M1377,343h-70.1v67.6h70.1
		C1471.7,410.6,1470.4,343,1377,343z M424.2,343h-83.6v148.8h82.4C606.1,494.2,606.1,339.3,424.2,343z M1377,343h-70.1v67.6h70.1
		C1471.7,410.6,1470.4,343,1377,343z M424.2,343h-83.6v148.8h82.4C606.1,494.2,606.1,339.3,424.2,343z M1377,343h-70.1v67.6h70.1
		C1471.7,410.6,1470.4,343,1377,343z M424.2,343h-83.6v148.8h82.4C606.1,494.2,606.1,339.3,424.2,343z M1377,343h-70.1v67.6h70.1
		C1471.7,410.6,1470.4,343,1377,343z M1139.7,0C510.2,0,0,174.5,0,406.9c0,280.3,510.2,438.9,1139.7,438.9
		c629.5,0,1137.2-170.9,1139.7-422.9C2283.1,173.3,1769.2,0,1139.7,0z M2027.4,489.3h7.4l8.6,27.1l9.9-27.1h7.4v32h-4.9v-27l-9.8,27
		h-3.7l-9.8-27v27h-4.9V489.3z M1994.2,489.3h27.1v3.7h-11.1v28.3h-4.9V493h-11.1V489.3z M1895.8,313.5h66.4v207.8h-66.4V313.5z
		 M1541.7,313.5h61.5v86.1h189.3v-86.1h61.5v209h-61.5V429h-189.3v93.4h-61.5V313.5z M1243,313.5h145.1
		c170.9,0,170.9,125.4-2.5,125.4h-79.9v82.4H1243V313.5z M91,508.9c-2.7-3.7-286.2-392.5,1048.7-454.9v102.1
		C1139.7,156.1-86,127.8,91,508.9z M419.2,521.2H277.8V313.5H418C693.4,313.5,702,521.2,419.2,521.2z M879.1,398.3v25.8H711.8
		c24.6,103.3,237.3,60.2,237.3,60.2l4.9,30.8c0,0-302.4,45.5-312.3-103.3c13.5-121.7,245.9-111.9,312.3-93.4l-6.2,30.7
		c-84.8-22.1-217.6-19.7-236,49.2H879.1z M982.3,518.8V313.5h62.7v175.8h174.6v29.5H982.3z M1144.6,795.4V693.4
		c0,0,1225.7,28.3,1048.8-352.8C2196.1,344.2,2478.4,733,1144.6,795.4z M1377,343h-70.1v67.6h70.1C1471.7,410.6,1470.4,343,1377,343
		z M424.2,343h-83.6v148.8h82.4C606.1,494.2,606.1,339.3,424.2,343z M1377,343h-70.1v67.6h70.1C1471.7,410.6,1470.4,343,1377,343z
		 M424.2,343h-83.6v148.8h82.4C606.1,494.2,606.1,339.3,424.2,343z M1377,343h-70.1v67.6h70.1C1471.7,410.6,1470.4,343,1377,343z
		 M424.2,343h-83.6v148.8h82.4C606.1,494.2,606.1,339.3,424.2,343z M1377,343h-70.1v67.6h70.1C1471.7,410.6,1470.4,343,1377,343z
		 M424.2,343h-83.6v148.8h82.4C606.1,494.2,606.1,339.3,424.2,343z M1377,343h-70.1v67.6h70.1C1471.7,410.6,1470.4,343,1377,343z
		 M424.2,343h-83.6v148.8h82.4C606.1,494.2,606.1,339.3,424.2,343z M424.2,343h-83.6v148.8h82.4C606.1,494.2,606.1,339.3,424.2,343z
		 M424.2,343h-83.6v148.8h82.4C606.1,494.2,606.1,339.3,424.2,343z"/>
	<path class="st0" d="M424.2,343h-83.6v148.8h82.4C606.1,494.2,606.1,339.3,424.2,343z"/>
	<path class="st0" d="M422.9,491.7h-82.4V343h83.6C606.1,339.3,606.1,494.2,422.9,491.7z"/>
	<path class="st0" d="M1377,410.6h-70.1V343h70.1C1470.4,343,1471.7,410.6,1377,410.6z"/>
	<path class="st0" d="M1377,410.6h-70.1V343h70.1C1470.4,343,1471.7,410.6,1377,410.6z"/>
</g>
</svg>
