<?xml version="1.0" encoding="utf-8"?>
<!-- Generator: Adobe Illustrator 26.1.0, SVG Export Plug-In . SVG Version: 6.00 Build 0)  -->
<svg version="1.1" id="Capa_1" xmlns="http://www.w3.org/2000/svg" xmlns:xlink="http://www.w3.org/1999/xlink" x="0px" y="0px"
	 viewBox="0 0 2279.5 433" style="enable-background:new 0 0 2279.5 433;" xml:space="preserve">
<style type="text/css">
	.st0{fill-rule:evenodd;clip-rule:evenodd;fill:#E0E0E0;}
</style>
<g>
	<path class="st0" d="M198.7,62.9l90.3-0.7c81.7,1.5,91,49.1,54.2,157.5c-31.1,92.5-79.5,148.9-171.3,148.1h-71.5L198.7,62.9z
		 M1857.1,183.5C1910.6,54.2,1980.6,5.1,2124.4,1.5c128.6-2.9,185.7,56.4,138.7,204.5c-50.6,161.1-142.3,226.2-281.1,226.2
		C1829.6,432.9,1791.3,339.6,1857.1,183.5L1857.1,183.5z M1956.1,192.2c33.2-82.4,81.6-139.5,153.2-140.2
		c64.3-0.7,75.9,46.3,47,145.2c-36.9,127.2-90.3,182.8-163.3,181.4C1912,377.9,1913.4,298.4,1956.1,192.2z M1779,90.3l24.6-70.8
		C1766.8,8,1727.7,0,1675,0c-89.6-0.7-156.8,27.5-184.3,90.3c-43.3,96.1,17.4,125.7,90.3,159.7c106.9,49.9,45.5,135.9-57.1,127.2
		c-41.2-3.6-77.3-22.4-113.5-39.7l-23.1,72.3c43.4,14.4,94.7,26.7,157.5,22.4c106.2-6.5,172-49.1,198.7-116.3
		c30.3-76.6-16.6-123.6-86.7-146C1511,122.9,1598.4-15.2,1779,90.3z M992.1,8.7c10.1,14.4,20.2,28.2,26,42.6L900.4,423.4h71.5
		l98.3-310.7l112.7,310.7h101.2l-4.3-11.6L1407.6,8.7h-72.3l-93.9,297.7L1133.1,8.7C1086.1,8.7,1039.1,9.4,992.1,8.7L992.1,8.7z
		 M588.2,8.7c10.8,14.4,21,28.2,26,42.6L497.1,423.4h310l14.4-46.2H612L658.3,232H797l14.4-45.5H672.7l41.9-133H917l13.7-44.8
		C816.5,8.7,702.4,9.4,588.2,8.7z M91.8,8.7c10.1,14.4,21,28.2,26,42.6L0,423.4h101.2l59.2-0.7c173.4,0,255.8-86,290.5-198
		C500.8,65,440.1,9.4,292.6,9.4L91.8,8.7L91.8,8.7z"/>
</g>
</svg>
