<?xml version="1.0" encoding="utf-8"?>
<!-- Generator: Adobe Illustrator 26.1.0, SVG Export Plug-In . SVG Version: 6.00 Build 0)  -->
<svg version="1.1" id="Capa_1" xmlns="http://www.w3.org/2000/svg" xmlns:xlink="http://www.w3.org/1999/xlink" x="0px" y="0px"
	 viewBox="0 0 53 53" style="enable-background:new 0 0 53 53;" xml:space="preserve">
<style type="text/css">
	.st0{fill:#E0E0E0;}
</style>
<g id="a">
</g>
<g id="b">
	<g id="c">
		<g id="d">
			<g id="e">
				<path class="st0" d="M36,53h-1.5V30.6h6.7l0.6-4.5h-7.3v-6.3c0-1.3,0-5.2,5.2-5.2h2.5v-3.9c-1.4-0.1-2.9-0.2-4.3-0.2
					c-5.2,0-8.2,3.1-8.2,8.5v7.1h-6.5v4.6h6.5V53H4.2C1.9,53,0,51,0,48.7V4.3c0-1.1,0.4-2.2,1.2-3C2,0.4,3.1,0,4.2,0h44.5
					C51.1,0,53,1.9,53,4.3v44.5c0,2.3-1.9,4.2-4.2,4.3H36z M4.3,3C3.9,3,3.6,3.1,3.4,3.4S3,3.9,3,4.3v44.5C3,49.4,3.5,50,4.2,50
					h22.5V33.7h-6.5V23.1h6.5v-4.1c0-7,4.4-11.5,11.2-11.5c2,0,4,0.1,6,0.3L45.2,8v9.6h-5.5c-2.1,0-2.2,0.6-2.2,2.2v3.3h7.7
					l-1.4,10.6h-6.3V50h11.2c0.7,0,1.3-0.6,1.3-1.3V4.3C50,3.6,49.4,3,48.7,3C48.7,3,4.3,3,4.3,3z"/>
			</g>
		</g>
	</g>
</g>
</svg>
