<?xml version="1.0" encoding="utf-8"?>
<!-- Generator: Adobe Illustrator 26.1.0, SVG Export Plug-In . SVG Version: 6.00 Build 0)  -->
<svg version="1.1" id="Capa_1" xmlns="http://www.w3.org/2000/svg" xmlns:xlink="http://www.w3.org/1999/xlink" x="0px" y="0px"
	 viewBox="0 0 2500 1008" style="enable-background:new 0 0 2500 1008;" xml:space="preserve">
<style type="text/css">
	.st0{fill:#E0E0E0;}
</style>
<path class="st0" d="M270.6,21.2c-3.2,0.6-13.1,2.6-21.8,4.4c-60.8,12.2-103.6,41-137.4,93.1C96,142,87,165.6,80.3,199.3
	c-2,9.6-3.2,68.4-3.2,157.1c0,146.4,0.6,156.6,12.8,195.6c3.8,12.8,13.4,31.1,27.1,53c9,14.8,44.8,48.9,59.1,56.5
	c6.4,3.5,13.1,7.6,15.1,9.3c2,1.5,15.7,7,30.6,11.9l26.8,9h1992.2l21.8-7c38.4-11.9,61.7-26.2,90.5-56.5
	c20.4-21,28.2-32.3,37.8-51.5c21-43.7,21-43.1,22.1-213c1.2-146.1,0.9-153.1-4.9-176.9c-10.2-41.6-26.2-72.2-53-100.4
	c-29.7-30.8-58.8-47.7-105.6-60.2c-16-4.4-102.4-4.9-995.2-5.5C716.4,20.4,273.8,20.6,270.6,21.2L270.6,21.2z M2230.5,60.5
	c59.9,7.3,111.2,47.7,134.2,105.9c13.7,33.5,14.3,43.1,14.3,190.3c0,127.5-0.6,141.7-5.5,162.4c-7,28.8-12.2,40.7-28.5,65.5
	c-21,31.7-56.5,55.9-98.1,66.6c-19.8,5.2-59.9,5.5-1002.8,5.5c-1084.3,0-996.1,1.5-1035.7-18.3c-22.7-11.3-60.2-46.6-71.3-67.2
	c-22.4-40.7-24.7-62-24.7-212.7c0-178.4,4.1-198.2,51.8-250c21.5-23,61.7-44.2,91.1-47.7C286.6,56.7,2199.4,56.4,2230.5,60.5
	L2230.5,60.5z"/>
<path class="st0" d="M733.3,185.1c-64.6,4.9-112.3,39.6-130.1,94.9c-9.6,29.1-11.1,39-11.1,71.6c0,54.7,10.8,94.9,32.6,122.8
	c13.4,16.9,21.5,23.6,41.6,33.5c31.1,15.4,50.3,18.9,101.9,19.2c50.3,0,67.5-3.5,101.6-20.4c25.9-13.1,52.4-43.1,62.6-71.3
	c13.7-38.7,19.2-91.7,11.6-116.1c-1.5-5.5-4.1-16-5.5-23.3c-9-47.4-40.7-84.1-85.3-99.2c-9.9-3.2-19.8-7-22.4-8.4
	C824.7,185.1,761,183,733.3,185.1L733.3,185.1z M797.3,244.4c29.1,7,46,23.3,58.5,55.9c4.7,12.2,5.5,21.5,5.2,56.7
	c-0.6,48-4.1,60.8-22.7,82.9c-18.3,22.1-29.4,26.2-70.1,26.2c-30.8-0.3-36.4-0.9-47.4-7c-14.6-7.9-35.5-30.8-35.5-38.7
	c0-2.9-2-9.6-4.9-14.8c-3.8-7.3-4.7-18-4.7-51.5c0-37,0.9-44.2,6.4-58.2c6.7-16.3,18-30.3,33.5-41.6
	C732.7,242.1,769.4,237.7,797.3,244.4L797.3,244.4z M257,349.8c-0.6,89,0,164.4,1.2,167.6c2,4.9,5.2,5.5,33.8,5.5
	c20.7,0,32.6-1.2,34.9-3.5c2.6-2.6,3.5-21.5,3.5-66.6c0-50.1,0.9-63.7,4.1-66.3c2.6-2.3,23-3.2,67.5-2.6l63.7,0.9l1.5,68.4l1.5,68.4
	l33.2,0.9c21.8,0.6,34.3-0.3,37-2.6c3.5-2.9,4.1-30.3,4.1-163.8c0-88.2-1.2-162.1-2.3-164.1c-2-2.6-11.3-3.5-37.2-2.9l-34.6,0.9
	l-0.9,63.7c-0.3,41-1.7,65.2-3.8,67.8c-4.7,5.2-121.3,5.5-128.6,0c-4.4-2.9-4.9-11.3-5.5-67.5l-0.9-64l-35.5-0.9l-35.8-0.9
	L257,349.8z M988.2,193.8c-4.9,8.7-4.1,193.5,0.9,224.4c7.3,45.7,25.6,73,59.7,89.3c21.2,10.2,62,15.1,125.7,15.1
	c38.1,0.3,49.2-0.6,51.8-3.8c2.3-2.6,3.2-13.1,2.6-28.5l-0.9-24.2l-59.7-1.5c-63.4-1.5-73.9-3.8-89.9-18.3
	c-15.7-14.6-16.3-17.8-17.8-141.7l-1.5-114.9l-34-0.9C993.8,188.3,990.9,188.6,988.2,193.8L988.2,193.8z M1340.9,191.5
	c-40.7,4.4-69.3,22.1-82.9,51.8c-5.5,11.3-6.4,18.6-6.4,46.9c0.3,27.9,1.2,35.8,6.4,46.9c8.1,17.8,24.7,32.3,46,40.7
	c16.3,6.4,21.8,7,98.6,8.4c44.8,0.9,83.5,2.6,85.8,4.1c14.8,8.7,17.5,14,17.5,33.8c0,36.1-6.4,37.8-138.8,37.8
	c-72.8,0-99.5,0.9-102.1,3.5c-4.4,4.4-4.7,44.2-0.6,52.1c2.9,5.2,7.3,5.5,98.9,5.5c113.5,0,148.1-2.9,173.1-14.8
	c21.8-10.5,31.1-18.9,40.4-37.8c7-13.4,7.6-18,7.6-49.5c0-37.8-3.5-50.1-20.1-67.5c-17.8-19.2-34.9-22.4-129.8-25
	c-81.8-2-89.6-3.5-100.4-16c-5.8-7.3-4.4-36.1,2.3-45.1c11.3-15.4,24.7-17.2,130.4-17.5c70.4-0.3,96.9-1.2,99.5-3.8
	c3.8-3.8,4.9-39.3,1.7-51.2l-1.7-6.4l-101,0.3C1410.2,188.8,1354,190.3,1340.9,191.5L1340.9,191.5z M1747.5,192.6
	c-71.9,10.5-106.2,41-122.5,110c-7.9,32.3-7.6,87,0.3,112.3c15.1,47.4,35.2,73.3,71.3,90.8c25.9,12.5,40.2,14.3,128,16.3
	c68.7,1.5,79.2,1.2,82.4-2.9c2.6-2.9,3.5-12.2,2.9-28.8l-0.9-24.2l-71.3-2c-44.8-1.2-76.2-3.2-84.7-5.8
	c-17.2-4.9-33.2-17.2-40.2-30.8c-5.8-11.6-8.7-34.6-4.9-40.7c1.5-2.6,26.5-3.5,98.9-3.5c79.7,0,97.8-0.9,100.4-4.1
	c2.3-2.6,3.2-13.1,2.6-28.5l-0.9-24.2l-100.4-1.5l-100.4-1.5l-0.9-14.3c-0.9-12.5,0.3-16.3,9.6-29.4c5.5-8.4,14-16.9,18.3-18.9
	c24.4-11.9,27.6-12.5,101-14.3l72.8-1.7l0.9-21.8c0.6-11.9,0-24.7-0.9-28.2l-1.5-6.7l-67.8,0.3
	C1802.8,188.8,1761.1,190.6,1747.5,192.6L1747.5,192.6z M1938.7,193.2c-1.2,0.9-2,13.4-2,27.4c0,25,0,25.3,7.6,27.1
	c4.4,1.2,28.8,1.7,54.1,1.5c37-0.3,47.1,0.3,49.2,3.5c1.5,2.3,2.6,63.1,2.6,135.3c0,117.3,0.6,131.8,4.7,133.3
	c2.6,0.9,18.6,1.7,36.1,1.7c22.7,0,32.3-1.2,34.6-3.8c2-2.9,3.5-44.5,3.8-136.2l0.9-132.1l53.8-1.5c29.7-0.9,55.6-2.6,57.6-3.8
	c4.7-3.2,4.9-46,0-50.9c-2.6-2.6-40.4-3.5-152.2-3.5C2007.3,191.2,1939.5,192,1938.7,193.2L1938.7,193.2z M820.6,828.2
	c-16.3,7.6-34.9,27.9-41.9,46.3c-8.1,20.7-8.4,54.7-0.6,69.8c5.5,10.8,16,21.8,29.4,30.6c4.7,3.5,13.4,4.9,25.6,4.9
	c18.3,0,27.4-3.2,43.7-15.1c8.7-6.4,26.8-30,26.8-34.9c0-2,2-9,4.4-15.4C928,858.4,872.7,804,820.6,828.2z M865.1,844.2
	c12.5,6.4,18.6,14.8,22.4,32c7.6,31.7-8.4,69.5-33.8,80.9c-15.1,6.7-23.3,6.7-37-0.3c-31.4-16-32.3-69.5-1.7-101.3
	C828.2,841.6,850.6,836.6,865.1,844.2z M1033.6,827.9c-13.1,6.4-29.7,22.1-35.8,34c-11.9,23-15.7,54.7-9,75.7
	c5.5,17.5,9.9,24.2,23,33.5c9.9,7.3,14.6,8.7,29.1,8.7c21.2,0,35.5-7,50.3-23.9c16.9-19.8,19.2-31.4,5.8-31.4
	c-4.9,0-8.7,3.5-14.3,12.8c-13.1,22.1-34.3,30.3-54.7,20.4c-16.9-8.1-20.4-16-20.4-44.8c0-25.9,5.2-42.2,17.8-56.5
	c7.6-8.7,25.3-16.3,37.8-16.3c9.6,0,13.7,2,22.1,10.2c5.5,5.8,10.2,12.8,10.2,15.7c0,6.1,4.7,8.7,12.5,6.7
	c14.3-3.8-1.2-35.2-22.4-45.4C1072.6,821.2,1047.6,821.5,1033.6,827.9z M1822.3,828.2c-13.1,6.1-32.6,24.4-39,36.4
	c-6.4,11.9-12.5,38.1-12.5,52.1c0,15.4,7.3,36.4,15.4,45.1c3.5,3.8,11.6,9.6,17.8,12.8c16,8.1,46.9,6.4,68.7-4.4l16-7.6l5.2-22.7
	c2.6-12.5,4.9-26.2,4.9-30.8v-7.9h-30.3c-28.5,0-30.3,0.3-31.7,6.4c-2.6,9.6-0.3,11.1,18.3,11.1c9.3,0,17.8,1.2,18.6,2.6
	c0.9,1.2,0.6,8.1-0.6,15.1c-2,11.3-3.5,13.4-15.1,19.2c-22.7,11.1-44.5,7.6-57.9-9.6c-4.9-6.4-6.1-11.9-6.1-31.7
	c0-35.2,10.5-56.2,34-68.1c17.2-8.4,33.2-8.1,44.2,1.5c4.9,4.1,9,9,9,11.1c0,5.2,9.6,13.4,15.4,13.4c11.6,0,9.3-17.5-4.1-33.8
	C1880.2,823.2,1844.1,818,1822.3,828.2L1822.3,828.2z M2414.2,827.6c-11.1,5.5-26.5,25-26.5,33.5c0,9,10.8,27.4,19.5,33.2
	c4.4,2.9,17.2,10.2,28.2,15.7c24.4,12.2,30.8,21,25.3,34c-7.3,17.5-39,24.2-55.9,11.9c-4.9-3.8-9.6-10.8-11.6-17.8
	c-2.6-10.2-3.8-11.1-12.2-10.2c-7.9,0.9-9.3,2-8.7,8.4c0.9,14,10.5,29.7,22.7,36.4c15.4,9,46,9.6,62.3,1.5
	c26.5-13.7,34.9-42.8,17.8-62.3c-4.7-5.5-17.5-14.3-28.2-19.8c-30.8-15.1-35.8-19.2-35.8-28.8c0-12.5,12.8-23.3,27.6-23.3
	c14.3,0,29.4,8.7,34.3,19.5c4.4,10.5,7.9,12.8,14.3,9.3c12.8-7,1.5-31.7-19.2-41.6C2455.2,821.2,2427,821.5,2414.2,827.6
	L2414.2,827.6z M7.3,829.9c-7.3,8.7-1.2,12.8,19.5,13.7c18.6,0.9,19.8,1.2,21,8.1c0.3,4.1-1.2,17.8-3.8,30.6
	c-11.6,55.3-13.4,64.9-15.1,79.2c-1.7,13.1-1.2,15.7,3.2,17.2c7.6,2.9,14.6-2.6,15.4-12.2c0.3-4.7,2.6-17.8,5.2-28.8
	c2.6-11.3,6.4-28.2,8.4-37.8c2.3-9.6,4.7-23.3,5.8-30.6c2.9-22.1,7.3-26.2,28.8-26.2c19.5,0,27.4-4.4,23.9-13.1
	C117.3,823.5,12.8,823.5,7.3,829.9L7.3,829.9z M198.2,829c-0.6,2-3.2,14.3-5.8,27.1c-2.9,12.8-7,30.8-9.3,39.9
	c-6.1,24.4-5.2,51.2,1.7,61.7c18.6,28.5,68.7,30,90.2,2.6c11.3-14.3,16.9-30.3,23.6-67.8c1.7-8.7,4.9-23.3,7.3-32.3
	c2.3-8.7,4.1-20.4,4.1-25.3c0-8.4-0.9-9.3-8.4-9.3c-9.3,0-8.1-4.1-22.7,66.9c-8.7,42.8-16,57.9-31.4,65.2c-13.4,6.4-27.6,5.8-36.7-2
	c-13.4-11.1-14.8-17.2-10.2-37.5c7-29.4,13.1-60.8,15.1-77.4l2-15.1h-9.3C203.4,825.6,198.8,827.3,198.2,829L198.2,829z
	 M398.7,833.4c-1.2,4.7-3.5,16.6-5.8,27.1c-2,10.5-5.8,28.8-8.4,40.7c-2.3,11.9-6.4,31.7-9,43.7c-6.1,27.1-5.2,33.5,4.4,33.5
	c9,0,13.1-8.1,17.5-34c5.2-33.2,6.1-34.3,25-34.3c14.8,0,17.5,0.9,25.6,9.9c4.9,5.2,11.3,16,14.3,23.9
	c10.8,29.4,14.6,34.6,23.9,34.6c7.6,0,8.7-0.9,7.9-7.3c-0.9-10.2-11.6-34.6-19.8-45.7c-3.8-4.9-7-10.5-7-12.2
	c0-1.5,5.8-5.5,12.8-8.4c24.7-11.1,36.4-37,26.5-59.1c-7.9-17.2-17.2-20.1-65.8-20.1h-40.4L398.7,833.4z M479,846.2
	c14.6,7.6,11.9,30.3-4.7,40.4c-8.4,5.2-13.7,5.8-37,5.2c-26.8-0.9-27.1-0.9-26.5-8.1c0.9-15.1,4.7-33.5,7.6-37.2
	C422,842.1,470.8,841.6,479,846.2z M601.5,829c-2,2-3.5,6.7-3.5,10.8c0,4.4-1.7,16-4.4,26.5c-2.3,10.5-6.1,29.4-8.7,42.2
	c-2.6,12.8-6.7,32-9.3,42.8c-2.3,10.8-3.8,21.5-2.6,24.2c2.3,6.4,66.6,6.1,83.8-0.3c33.2-12.8,47.4-48.9,27.1-68.1
	c-9-8.4-9-10.8,0-18c13.1-10.2,15.7-37.2,4.7-50.1c-9.6-10.8-19.5-13.4-52.1-13.4C615.8,825.6,603.8,826.7,601.5,829L601.5,829z
	 M669,849.1c13.4,10.5,7.6,31.1-10.5,37.2c-13.4,4.7-42.2,4.1-43.9-0.9c-2.6-7,2.6-37,7-39.9c2.3-1.5,12.2-2.6,21.8-2.6
	C657.1,843,662.9,844.5,669,849.1L669,849.1z M663.2,911.7c6.1,2.3,9,19.8,4.7,30c-5.2,12.5-20.4,18.3-46.6,17.2l-21.8-0.9l-0.9-9.6
	c-0.6-5.2,1.2-16,3.8-23.9l4.9-14.6h25.6C647.2,909.9,660.6,910.8,663.2,911.7z M1204.7,840.7c-2.3,8.1-4.4,17.5-4.4,20.7
	c0,2.9-1.7,13.4-4.1,23.3c-4.1,16.6-8.4,37.5-16,76.2c-2.9,16.3-0.9,19.5,11.3,18.3c6.4-0.9,7.6-2.6,9.3-15.4
	c0.9-8.1,3.2-19.2,4.9-24.7c1.7-5.5,3.2-13.7,3.2-18c0-11.9,7.9-14.6,42.2-13.4c16.6,0.3,30.8,1.7,32,2.9c2,2-0.6,15.7-9,48.6
	c-4.4,17.2-3.5,20.7,4.7,20.7c10.2,0,14.6-3.5,16-14c1.7-10.5,5.5-29.4,15.1-76.2c2.3-11.9,6.4-30,8.7-39.9
	c4.9-20.1,3.8-24.2-6.1-24.2s-13.4,5.8-16.6,27.9c-4.7,32.3-5.5,33.2-43.7,33.2c-37.5,0-37.8-0.3-30.6-26.5c2.6-9.3,4.7-21,4.7-25.9
	c0-7.9-0.9-8.7-8.7-8.7C1210,825.6,1208.8,827,1204.7,840.7L1204.7,840.7z M1428.5,840.7c-4.7,8.4-9.9,18-11.9,21.2
	c-1.7,3.2-7.3,13.7-12.2,23.3c-8.7,16.9-17.2,32.9-37.8,69.3c-10.2,18.6-10.2,25.3,0.6,25.3c8.4,0,13.1-5.2,23.3-27.1l8.1-16.6h28.8
	c16,0,29.7,1.2,30.6,2.9s2.6,11.1,3.8,21.2c2,16.9,2.6,18,10.2,18.9c4.7,0.6,8.4-0.6,9.3-2.9c1.7-4.4-2-40.4-7-66.3
	c-1.7-8.7-5.2-29.1-7.6-45.1c-6.7-41-5.8-39.3-18.6-39.3C1437.8,825.6,1436.4,826.7,1428.5,840.7L1428.5,840.7z M1446,865.4
	c6.4,33.2,8.1,44.8,6.7,48.9c-1.5,3.2-6.4,4.4-20.7,4.4c-18.9,0-25-2.9-19.8-9.6c1.7-2,8.4-14.3,14.8-27.6
	c6.7-13.1,13.4-23.9,14.6-23.9C1443.1,857.6,1445.1,861.1,1446,865.4z M1590.6,829.3c-1.7,2.3-3.8,8.4-4.7,14
	c-0.9,5.5-3.8,19.8-6.1,31.7c-2.6,11.9-6.4,31.7-9,43.7c-2.3,11.9-6.1,29.7-8.4,39c-4.7,18.9-3.2,23.3,7.9,21.5
	c7.6-0.9,10.8-8.7,17.2-43.1c1.7-10.5,4.7-20.7,6.4-22.7c1.7-2,9.6-3.5,18.9-3.5c13.7,0,16.9,1.2,23.6,8.7
	c4.4,4.7,10.2,14.8,13.1,22.4c11.3,30,16.3,38.7,22.1,38.7c11.1,0,14.6-2.9,11.9-9.6c-11.6-30-16-39.6-22.1-47.7
	c-3.8-4.9-7-9.9-7-10.5c0-0.9,6.7-4.1,14.6-7.6c34.3-14.8,39.9-61.7,9-74.8C1664.5,824.1,1595.3,823.8,1590.6,829.3L1590.6,829.3z
	 M1670.9,849.4c7.6,7,8.4,14.8,3.2,26.5c-6.1,12.5-20.4,16.9-50.3,16c-29.7-0.9-27.6,1.2-22.4-28.2c1.5-8.4,4.7-16.6,6.7-18
	c2.3-1.5,15.7-2.6,30-2.6C1660.7,843,1665.1,843.9,1670.9,849.4L1670.9,849.4z M2004.1,830.5c-2.9,5.5-6.4,20.4-13.7,59.1
	c-2.6,13.7-6.7,32.6-9,42.2c-2,9.6-4.4,23.9-4.7,32l-0.9,14.6l51.5,0.9c44.2,0.6,51.8,0,56.2-4.1c2.6-2.6,4.4-7,3.8-9.6
	c-0.9-4.1-7-4.7-43.7-5.5c-46.3-0.9-48.6-1.7-43.1-16.9c1.7-4.1,2.9-11.6,2.9-16.9c0-5.5,1.7-11.1,3.8-12.8c2.3-2,20.1-3.8,43.1-4.1
	l39-0.9l0.9-9.6l0.9-9.3h-37.5c-30,0-38.1-0.9-39.3-4.1c-0.9-2.3,0.6-12.5,3.2-22.7l4.9-18.3l42.2-1.5l42.2-1.5V827l-50.1-0.9
	C2011.4,825.6,2006.5,825.8,2004.1,830.5L2004.1,830.5z M2195.9,832c-2.6,7-5.5,20.7-13.4,60.5c-2.6,13.7-6.7,32.6-8.7,42.2
	c-2.3,9.6-4.7,23.3-4.9,30.6c-0.9,12.8-0.6,13.1,7.9,13.1c8.1,0,8.7-0.9,10.8-14c0.9-7.9,3.2-18,4.9-23c1.7-4.9,3.2-12.5,3.2-16.6
	c0-4.4,1.5-9.3,3.5-11.3c5.2-5.2,31.7-4.4,39.9,1.2c6.7,4.7,23.6,38.1,27.6,54.1c1.2,5.2,4.4,8.7,9,9.9c9.9,2.6,16.9-0.6,15.1-7
	c-4.4-14.3-10.2-26.8-18.6-40.7c-5.2-8.4-9.6-16.6-9.6-18.3c0-1.5,5.8-5.5,12.8-8.7c30.8-13.7,38.7-54.7,13.7-71.6
	c-9-6.1-13.1-6.7-50.3-6.7C2199.7,825.6,2198.2,825.8,2195.9,832L2195.9,832z M2276.5,847.7c9.6,6.7,9,25.3-1.5,34.9
	c-10.2,9.3-14.8,10.2-44.5,9.3l-24.7-0.9l0.3-13.1c0-7.3,2.3-18,4.9-24.2l4.7-10.8h27.1C2262.8,843,2271.9,844.2,2276.5,847.7
	L2276.5,847.7z"/>
</svg>
