<?xml version="1.0" encoding="utf-8"?>
<!-- Generator: Adobe Illustrator 26.1.0, SVG Export Plug-In . SVG Version: 6.00 Build 0)  -->
<svg version="1.1" id="Capa_1" xmlns="http://www.w3.org/2000/svg" xmlns:xlink="http://www.w3.org/1999/xlink" x="0px" y="0px"
	 viewBox="0 0 694.9 247.8" style="enable-background:new 0 0 694.9 247.8;" xml:space="preserve">
<style type="text/css">
	.st0{fill:#E0E0E0;}
	.st1{fill:#BA1818;}
	.st2{fill:#E52521;}
	.st3{fill:#EF772B;}
	.st4{fill:#FAB84A;}
	.st5{fill:#FFD634;}
	.st6{fill:#089939;}
	.st7{fill:#9AC43B;}
	.st8{fill:#669934;}
	.st9{fill:#CC1517;}
	.st10{fill:none;}
</style>
<g id="a">
</g>
<g id="b">
	<g id="c">
		<g>
			<path class="st0" d="M425.4,169.6L425.4,169.6c-0.1,0.3-0.3,0.5-0.3,0.8c-0.3,2.7-0.5,5.4-1,8.1c-1.2,5.9-2.9,11.6-5.2,17.1
				c-0.6,1.6-1.3,3.2-2.1,4.7c-2.1,3.7-3.9,7.6-6.6,11c-2.8,3.6-5.8,7-9.3,9.8c-6,5-12.6,8.7-20,11.1c-7.2,2.3-14.5,3.1-21.9,2.9
				c-5.3-0.1-10.6-0.8-15.9-1.4c-3.2-0.3-6.4-0.7-9.6-1.2c-6-0.9-12-2-18-2.9c-3.5-0.5-7.1-0.9-10.7-1.1c-2.7-0.2-5.5-0.2-8.2-0.4
				c-0.9,0-1.2,0.5-1.4,1.4c-0.3,2.6-0.7,5.2-1.1,7.9c-0.2,1.4-0.6,2.8-0.8,4.2c-0.1,1,0.2,1.3,1.1,1.1c0.2-0.1,0.5-0.1,0.7-0.2
				c3.2-1.3,6.6-1.5,9.9-1.5c4.8,0,9.6,0.3,14.3,1.1c4.6,0.8,9.2,1.2,13.8,1.8c3,0.3,5.9,0.5,8.9,0.8c1.3,0.1,2.7,0.5,4,0.5
				c4.9,0.3,9.8,0.6,14.8,0.7c4,0,8,0.1,11.9-0.4c7.1-0.9,13.9-3.2,20.3-6.6c3.4-1.8,6.6-3.9,9.7-6.2c2.6-1.9,5.1-4.1,7.2-6.5
				c2.7-3.1,5.3-6.4,7.4-10.1c2.3-4.1,4.2-8.4,5.5-13c0.8-2.7,1.4-5.4,2-8.1c0.4-1.6,0.8-3.2,0.9-4.8c0.2-4,0.4-7.9,0.4-11.9
				c0-2.8-0.1-5.6-0.2-8.5L425.4,169.6z"/>
			<path class="st0" d="M400.7,212.1c3.7-4.7,6.7-9.8,8.5-15.7c0.4-1.2,1.1-1.7,2.2-1.6c0.8,0,1.7,0,2.5-0.1c0.3-0.1,0.8-0.6,0.9-1
				c0.4-2.2,0.7-4.4,0.9-6.6c0.5-6.1,0.3-12.2-1-18.2c-1.2-5.9-3.3-11.5-6.1-16.7c-1.5-2.9-3.4-5.6-5.4-8.2c-1.9-2.4-4-4.7-6.2-6.7
				s-4.8-3.6-7.2-5.4c-2.8-2.1-5.8-3.5-9-4.7c-6.3-2.4-12.8-3.7-19.5-3.5c-6.3,0.2-12.3,1.4-18.2,3.8c-7.8,3.2-14.5,8.2-20.2,14.7
				c-2.3,2.7-4.2,5.7-6.1,8.8c-2.3,3.7-4.1,7.7-5.4,12c-0.5,1.6-0.5,2.1,0.8,3c1.5,1.1,1.8,2.6,1.8,4.5c0,3.3,0,6.6,0.2,9.9
				c0.2,2.6,0.7,5.1,1.2,7.6c0.4,1.9,1.1,3.7,1.6,5.6l0.3-0.1c-0.1-0.8-0.2-1.5-0.3-2.3c-0.4-2.9-1-5.8-1.1-8.7
				c-0.2-6,0.6-11.9,2.5-17.5c2.4-7.4,6.1-13.9,11.3-19.4c3.1-3.3,6.6-6.1,10.4-8.3c8.7-5,17.9-7.1,27.7-5.7c6,0.8,11.7,2.5,17,5.9
				c3.8,2.4,7.5,5,10.6,8.5c4,4.5,7.1,9.4,9.5,15c1.7,4.1,2.9,8.4,3.5,12.9c0.5,3.6,0.6,7.3,0.3,11c-0.3,4.3-1,8.5-2.4,12.6
				c-1.6,4.8-3.6,9.4-6.6,13.4c-1.3,1.8-2.5,3.6-3.9,5.1c-1.6,1.7-3.4,3.2-5.1,4.9l0.2,0.3c1.5-1,3-1.9,4.4-3.2l0,0
				C397.2,216.1,399,214.1,400.7,212.1z"/>
			<path class="st0" d="M398.4,164.8c-0.1-0.2-0.2-0.5-0.3-0.8c-1.9-4.4-4.4-8.4-7.6-11.8c-1.5-1.6-3.3-3-5.1-4.4
				c-2.1-1.6-4.3-3.1-6.5-4.4c-4.1-2.2-8.5-2.9-13-3.2c-1.8-0.1-3.6-0.2-5.4,0c-5.1,0.6-10,2.1-14.6,4.7c-4.1,2.3-7.6,5.2-10.6,8.9
				c-3.9,4.7-6.6,10.1-8.1,16.2c-1.1,4.8-1.9,9.5-1.2,14.5c0.2,1.4,0.1,2.9,0.1,4.4l0,0l0,0l0,0l0,0l0,0c0.3,0.5,0.5,1.1,0.8,1.6
				c0.3,0.7,0.4,1.8,1.5,1.4l0,0c1.1-0.4,1.5,0.2,1.9,1.1c2.2,4.9,5.2,9.3,8.8,13.1c1.8,2,4.1,3.4,6.2,5.1c2.2,1.8,4.7,2.6,7.3,3.3
				c0.1,0,0.3-0.1,0.6-0.1c-0.4-0.3-0.6-0.5-0.8-0.6c-2-1.2-3.9-2.5-5.9-3.7c-2.8-1.7-5.4-3.8-7.3-6.6c-1.7-2.5-3.5-5.1-4.8-7.9
				c-2-4.5-3-9.4-3-14.5c0-3.6,0.2-7.1,1.3-10.5c1.4-4.4,3.3-8.5,6.1-12.2c2.6-3.3,5.6-6,9-8.2c2.6-1.7,5.4-2.7,8.4-3.5
				c3.3-0.9,6.7-1.4,10-1c4.3,0.4,8.5,1.6,12.4,3.8c3,1.7,5.9,3.5,8.3,6.2c3.5,3.8,6.2,8.1,7.9,13.2c1.5,4.4,2,8.9,1.7,13.6
				c-0.1,2.1,0.2,4.3-0.6,6.4c-0.1,0.2,0,0.4,0,0.6l0.3,0.1c0.4-1.2,1-2.3,1.2-3.5c0.3-2.7,0.5-5.4,0.4-8.1c0-2.6-0.5-5.3-0.6-7.9
				c0-0.7,0.3-1.6,0.7-2C399.1,166.6,399.2,166.7,398.4,164.8z"/>
			<path class="st0" d="M318.1,134.3L318.1,134.3c0.9-1.2,1.7-2.3,2.6-3.5c0.5-0.6,1-1.2,1.5-1.8l-0.2-0.2c-0.7,0.5-1.4,1-2,1.6
				c-1.2,1.2-2.2,2.4-3.3,3.6c-0.8,0.9-1.6,1.7-2.3,2.6c-1.4,1.9-2.7,3.9-4.1,5.7c-2.8,3.7-5,7.9-6.3,12.4c-0.6,2.1-1.4,3-3.4,2.7
				c-0.4,0-1.2,0.5-1.3,0.9c-0.5,2.5-1.2,5.1-1.3,7.7c-0.2,4.4-1,8.7-0.8,13.2c0.2,6,0.7,11.8,1.8,17.6c0.1,0.4,0.5,1.1,0.9,1.2
				c1.3,0.4,2.7,0.6,4.1,0.8c1,0.1,1.2-0.3,0.9-1.4c-0.3-1.2-0.7-2.4-0.8-3.6c-0.4-4.3-0.9-8.6-1.1-12.9c-0.1-3.3,0.3-6.6,0.5-9.9
				c0.1-1.6,0.2-3.3,0.5-4.9c1.5-6.4,3.2-12.7,5.9-18.6c1.4-3,2.7-6.1,4.8-8.7C315.9,137.3,317,135.8,318.1,134.3z"/>
			<path class="st0" d="M369.8,173.8c2.5-2.7,4.9-5.5,7.4-8.2c-0.9-1-1.7-2.2-2.7-3c-1-0.9-2.3-1.4-3.8-1.1c0.3,0.4,0.6,0.6,0.9,0.8
				c0.6,0.4,1.3,0.7,1.9,1.1c0.6,0.4,0.7,1,0.3,1.6c-1.9,2.9-3.8,5.7-5.7,8.5c-0.5,0.7-0.9,1.5-1.4,2.3c-1.2-0.4-2.5-0.8-3.8-1.3
				c-0.2-0.1-0.3-0.4-0.3-0.6c0-1,0-2.1-0.1-3.1c-0.3-3.2-0.6-6.4-1-9.6c-0.2-2-0.3-2-2-1.9c-0.4,0-0.8,0-1.2,0
				c-1.8,0-4.1,1.4-4.8,3c1.2-0.5,2.2-1,3.3-1.3c1.3-0.4,1.8-0.1,2.2,1.3c0.8,3.6,1.6,7.2,2.5,10.8c0.1,0.6,0.7,1.4,0.5,1.6
				c-0.3,0.4-1.2,0.3-1.6,0.8c-1.4,1.8-2.5,0.7-3.7-0.3c-2.8-2.3-5.8-4.4-8.7-6.5c-0.6-0.5-1.5-1-2,0c-0.8,1.7-1.5,3.5-2.1,5.2
				c-0.2,0.5-0.1,1.1-0.2,1.6l0.4,0.1c0.4-1,0.9-2,1.2-3c0.4-1.1,1-1.3,1.9-0.9c2,1,4,2.1,6,3.2c1.3,0.7,2.5,1.7,3.8,2.2
				c0.9,0.3,0.9,0.7,0.6,1.4c-0.3,1-0.7,1.9-0.3,2.9c0.2,0.5,0,0.9-0.7,0.8c-0.5-0.1-1.1,0.1-1.7,0.2c-0.8,0.2-1.6,0.5-2.4,0.8
				c-2.9,0.9-5.8,1.8-8.6,2.8c-0.3,0.1-0.6,0.6-0.6,0.8c0.2,2.6,1.3,4.8,2.9,6.6c0.2,0.2,0.5,0.2,1,0.4c-0.2-0.5-0.2-0.6-0.3-0.7
				c-0.5-1.1-1.2-2.1-1.6-3.3c-0.1-0.4,0.1-1.3,0.5-1.4c3.1-1.6,6.3-3,9.4-4.5c0.7-0.3,1.5-0.9,2.1-0.7s0.7,1.5,1.3,1.9
				c1.8,1.1,1.2,2.5,0.5,3.9c0,0.1,0,0.2-0.1,0.2c-1.2,3.5-2.4,7.1-3.6,10.6c-0.1,0.4-0.1,1.1,0.1,1.3c0.8,0.5,1.6,1,2.5,1.2
				c0.9,0.3,1.8,0.3,2.7,0.3c0.7,0,1.5-0.2,2.2-0.3v-0.4c-0.3-0.1-0.5-0.2-0.8-0.2c-1-0.2-1.9-0.2-2.8-0.6c-0.4-0.1-0.9-1-0.8-1.4
				c0.7-4,1.6-8,2.4-12c0.1-0.3,0.4-0.6,0.7-0.7c1.1-0.2,2.2-0.4,3.3-0.6c0.7-0.2,1.1-0.1,1,0.9c0,0.4,0.2,1,0.5,1.4
				c0.7,1.2,1.5,2.3,2.2,3.5c1.4,2.4,2.9,4.8,4.3,7.2c3-0.6,4.7-2.6,5.7-5.5c-0.7,0.5-1.4,0.9-1.9,1.6c-1.1,1.5-1.7,1.7-2.9,0.2
				c-1.9-2.2-3.8-4.5-5.6-6.8c-0.6-0.8-1.5-1.7-1.6-2.6c0-0.8,0.9-1.7,1.3-2.6c0-0.1,0.1-0.1,0.1-0.2c0.3-0.7,0.8-0.8,1.5-0.8
				c1.5,0.2,3,0.2,4.5,0.4c2.2,0.3,4.4,0.6,6.6,1c0.8,0.1,1.2,0.8,1.9-0.6c0.9-1.9,0.7-3.5,0.4-5.3c-0.1-0.5-0.4-1.1-0.6-1.6
				l-0.3,0.1c0,1,0.1,1.9,0,2.8c-0.1,0.5-0.5,1.4-1,1.5c-1.6,0.3-3.2,0.5-4.8,0.5c-2.4,0-4.8-0.1-7.3-0.2c-0.2,0-0.5-0.3-0.6-0.6
				c-0.5-1-0.9-2.1-1.3-3.2c-0.1-0.4-0.1-1,0.2-1.2C368.3,175.2,369.1,174.6,369.8,173.8z"/>
			<path class="st0" d="M294.3,227L294.3,227c0.3-1,0.5-2.1,0.8-3.1c0.5-1.8,1.1-3.6,1.6-5.5c0.5-1.6,0.6-1.7,2-1.1
				c6.9,3.1,14,5.5,21.4,7.1c4,0.9,8,1.3,12,2.2c4.5,1.1,9,1.1,13.5,1.6c1.1,0.1,2.2,0.2,3.2,0.3c6.3,0,12.6,0.1,18.9-0.7
				c1.5-0.2,2.9-0.5,4.3-0.7v-0.4c-0.3,0-0.6-0.1-1-0.1c-1.8,0-3.7,0.2-5.5,0.2c-4.7-0.2-9.3-0.4-14-0.7c-3.1-0.2-6.2-0.4-9.3-0.9
				c-3.5-0.5-7-1.2-10.5-1.9c-3-0.6-6.1-1.3-9.1-2.1c-2.9-0.8-5.8-1.7-8.7-2.7c-5.5-2-11-4.2-16.5-6.4c-1.6-0.7-1.8-0.7-2.1,1.2
				c-0.6,3.5-1.1,6.9-1.8,10.4c-0.3,1.5-0.5,3,0.1,4.8C294,227.8,294.2,227.4,294.3,227z"/>
			<path class="st0" d="M293.2,203.5L293.2,203.5L293.2,203.5z"/>
			<path class="st0" d="M293.2,203.5c-1.7,1.5-1,4.1-2.9,5.2c0-0.9,0.2-1.8,0.5-2.7c0.3-1,0.1-1.5-0.9-1.6c-1.1-0.2-2.1-0.3-3.2-0.5
				c-2.8-0.3-5.5-0.6-8.3-0.9c-0.8-0.1-1.4,0.2-1.6,1c-0.5,1.9-1,3.8-1.4,5.7c-0.7,3.2-1.4,6.4-1.9,9.6c-0.5,2.7-0.7,5.5-1,8.2
				c-0.2,1.8-0.4,3.7-0.6,5.5c-0.1,0.9-0.1,1.9-0.2,2.8h0.4c0.3-1.4,0.8-2.8,1-4.2c0.3-2,0.3-4.1,0.7-6.1c0.9-4.7,1.8-9.5,3.5-14
				c0.6-1.5,0.8-1.8,2.3-1.7c0.5,0,1.1,0.1,1.6,0.2c2.5,0.5,5,1,7.5,1.5c0.9,0.2,1.1,0.5,1,1.5c-0.5,2.6-1,5.3-1.4,7.9
				c-0.4,2.3-0.7,4.5-1,6.8c-0.2,1.7-0.4,3.3-0.5,5c0,1.8,0.2,3.6,0.3,5.3h0.3c0.2-1.4,0.6-2.7,0.5-4c-0.2-2.4,0.5-4.5,0.8-6.8
				c0.3-2.8,0.9-5.5,1.4-8.3c0.6-3.2,1.1-6.3,1.8-9.5c0.3-1.5,0.9-3,1.3-4.6C293.2,204.6,293.1,204.2,293.2,203.5z"/>
			<path class="st0" d="M308.8,203.6c-2-0.7-4.1-1.1-6.2-1.7c-1.2-0.3-2.2,0.2-3.1,1c-0.3,0.3-0.4,0.9-0.5,1.3
				c0.3,0.2,0.7,0.3,1,0.4c0.4,0.1,0.9,0.1,1.3,0.2c5.1,1.4,10.3,2.8,15.4,4.3c7.2,2.1,14.3,4.3,21.5,6.4c0.3,0.1,0.7,0.1,1.2,0.2
				c-0.1-0.6-0.1-1.2-0.3-1.5c-0.9-1.4-1.7-2.8-2.8-4c-1.1-1.4-2.6-2.4-3.6-3.9c-3.1-4.8-5.2-10.1-6.8-15.8
				c-0.1-0.5,0.1-1.1,0.2-1.7c-0.4-0.2-0.8-0.4-1.2-0.6c-0.3,2.5,0.5,4.8,1.1,7.2c1.2,5.4,3.2,10.4,6.5,14.7
				c0.2,0.3,0.3,0.9,0.4,1.3c-0.4,0-0.8,0.1-1.2,0l0,0C323.9,208.9,316.4,206.2,308.8,203.6z"/>
			<path class="st0" d="M315.3,142.6L315.3,142.6c1.4-1.6,2.7-3.4,4.1-5c3.1-3.7,6.7-6.9,10.5-9.8c5.3-4,11-7.1,17.2-9.2
				c6-2,12.1-3.1,18.3-2.9c3.3,0.1,6.6,0.3,9.8,0.8c2.8,0.4,5.5,1.2,8.2,1.8c1,0.2,1.9,0.4,2.8,0.6l0.1-0.4
				c-0.8-0.4-1.7-0.9-2.5-1.2c-1.4-0.5-2.8-1-4.2-1.4c-1.1-0.3-2.3-0.4-3.4-0.6c-0.9-0.2-1.8-0.5-2.6-0.6c-2.8-0.3-5.5-0.6-8.3-0.7
				c-2.6-0.1-5.1,0-7.7,0.2c-5.9,0.5-11.5,2-17,4.4c-6.2,2.8-11.8,6.6-16.8,11.5c-2.3,2.3-4.5,4.8-6.5,7.4c-1.3,1.5-2.2,3.4-3.4,5
				l0.4,0.5C314.6,143,315.1,142.9,315.3,142.6z"/>
			<path class="st0" d="M391.8,183.9L391.8,183.9c0-1.6,0-3.3-0.1-4.9c-0.3-5.5-1.9-10.4-4.7-15c-3.1-5.1-7.4-8.3-12.2-11.1
				c-1.9-0.9-2-0.8-2.4,1.4c0,0.2-0.1,0.4-0.1,0.6c-0.3,0.9,0,1.5,0.8,1.8c2.9,1.2,5.4,3.2,7.7,5.5c5.1,5.2,7.5,11.8,7.4,19.5
				c0,2.6-0.1,2.6,2.3,3.4C391.5,185.4,391.8,185.1,391.8,183.9z"/>
			<path class="st0" d="M337.2,189.2c1,3.7,2.5,7.1,4.7,10.1c2.6,3.5,5.7,6.3,9.4,8.5c2.1,1.2,2,0.9,2.6-1.3
				c0.4-1.7,0.3-1.9-1.1-2.5c-2.8-1.2-4.9-3.5-6.9-5.8c-2.5-2.7-4.1-6.1-5.1-9.7c-0.9-3.3-1.5-6.6-0.9-10.1c0.3-1.8,0.2-1.9-1.4-2.5
				c-2-0.8-2.2-0.6-2.5,1.7l0,0C335.7,181.5,336.2,185.4,337.2,189.2z"/>
			<path class="st0" d="M388.6,195.2L388.6,195.2c0.4-0.7,0.2-1.1-0.3-1.4c-0.3-0.2-0.6-0.3-0.9-0.4c-1.3-0.5-2.2-0.1-2.9,1.1
				c-1.1,2.1-2.5,3.9-4.2,5.6c-4.6,4.4-9.8,6.8-16,6.7c-0.4,0-0.9,0-1.3,0.1c-0.3,0.1-0.7,0.4-0.8,0.8c-0.2,0.6-0.3,1.3-0.4,2
				c-0.1,0.8,0.2,1.4,1.1,1.3c2.9-0.2,5.7-0.3,8.5-1.1c3.5-1,6.6-2.7,9.4-5C383.9,202.2,386.6,199,388.6,195.2z"/>
			<path class="st0" d="M344,166.3L344,166.3c1.2-2.5,3.1-4.3,5.1-6c4.1-3.4,8.7-5.3,13.9-5.4c0.7,0,1.1-0.3,1.2-1s0.2-1.5,0.2-2.2
				c0-0.6-0.2-1.1-0.9-1c-2.8,0.5-5.7,0.8-8.4,1.7c-6.4,2.3-11.5,6.5-15,12.8c-0.8,1.5-0.8,1.7,0.8,2.3
				C343,168.2,343.1,168.3,344,166.3z"/>
			<path class="st1" d="M482.8,187.9L482.8,187.9c0-20.2-5.5-40.2-15.8-57.6l-18.3,11.4c7,14.1,10.6,30,10.5,46.2L482.8,187.9
				L482.8,187.9z"/>
			<path class="st2" d="M447.4,139.1L447.4,139.1L447.4,139.1z"/>
			<path class="st2" d="M435.4,96.1L425,111.5c9.3,7.7,16.8,17.1,22.4,27.6l18.1-11.3C457.9,115.6,447.7,104.7,435.4,96.1z"/>
			<path class="st3" d="M433,94.5L433,94.5c-1.4-1-2.9-1.9-4.4-2.8c-11.4-6.8-23.6-11.3-35.9-13.6l-2.6,15.3
				c7.9,2.1,15.7,5.3,23.1,9.8c3.4,2,6.6,4.2,9.6,6.6L433,94.5z"/>
			<path class="st4" d="M346.1,79.7L346.1,79.7l3.2,12.2c12.5-2.3,25.5-2.1,38,0.8l2.5-15.1C375.2,75.3,360.3,76.1,346.1,79.7z"/>
			<path class="st5" d="M308.3,97.7l6,8c10-6.4,21-10.8,32.3-13.3l-3.2-12C330.9,84,319,89.8,308.3,97.7z"/>
			<path class="st6" d="M281.4,126.4l6.1,3.9c7.1-9.2,15.4-16.9,24.5-23l-5.9-7.9C296.6,106.8,288.2,115.8,281.4,126.4z"/>
			<path class="st7" d="M263.1,187.9h1.9c0.8-9.3,2.8-18.5,5.8-27.1l-4.1-1.1C264.3,168.9,263.1,178.4,263.1,187.9z"/>
			<path class="st8" d="M285.7,132.6L285.7,132.6l-5.9-3.8c-0.5,0.9-1,1.7-1.5,2.6c-4.7,8.2-8.3,16.8-10.8,25.5l4.4,1.2
				c2-5.3,4.5-10.6,7.5-15.7C281.3,138.9,283.4,135.7,285.7,132.6z"/>
			<path class="st9" d="M140.1,159.2L140.1,159.2c3.5-0.3,6.8,0,9.6,0.7c25.6,6.1,14.1,32.1-13.8,19.1c3.7,8.4,12.3,8.9,18.5,8.9
				h103.7c0-64.4,51.4-116.7,114.9-116.7s114.9,52.2,114.9,116.7h9c0-93.2-88.8-192.2-196.3-186.6c9.5,2,16.7,5.4,21.7,9.2
				c16.6,12.8,9.7,30.1-10.1,13.5c-5.9-5-11.3-8.7-16.3-11.5c-42.5-23.9-53.6,23.9-89.3,7.5c11.7,12.5,26.6,11.2,41.2,7.3
				c2.2-0.6,4.4-1.2,6.5-1.9c25.9-7.8,29.7,14.1,6.3,16.3c-9.3,0.9-21.3-0.9-33.7-2.7c-28.8-4.1-59.4-7.8-61.7,24.1
				c8.9-21.6,24.4-18,44.2-10.9c22.9,8.3,51.8,21.4,83.1,6.3c27-13,31.9,10,8.2,16c-10.3,2.6-24.2,3.8-30.7,3.8
				c-21.9-3.5-44.2,4.2-44.2,4.2c26.8,2.6,16.2,12,10.6,13.5c-19.4,5.3-46.1,3.6-64,0.1c-6.9-1.3-12.5-3-15.9-4.5
				c3.6,4.1,7.9,7.4,12.7,10.2c29.1,16.6,76.2,11.2,85.8,18.2c8.8,6.4-1.5,14.5-12.3,12.5c-5.6-1-11.4-3.5-17.8-5.1
				c-11.3-2.8-25.9-2.9-41.6,6.4c8.4-0.7,31.5,0.4,33,11.3c1.4,10.6-13.3,18.4-59.7-14c-1.6-1.1-3.2-2.2-4.8-3.4
				c-50.2-36.4-76.2-3.5-76.2-3.5c28.7-10.4,34.4,8.9,21.5,17.7c-15.9,10.9-55.6,20.4-81.9,1.5c-1.4-1-2.8-2.1-4.1-3.3
				c0.8,1.2,1.6,2.3,2.4,3.3C47,187.2,107.6,161.9,140.1,159.2z"/>
			<path class="st9" d="M69.1,127.3c-14.2-15.8-21.6,9.5-34.7,0.5C47.8,147.5,53.4,121.6,69.1,127.3z"/>
			<path class="st9" d="M216.9,80.6c-6.2-20.4-23.6-0.8-31.6-14.6C189.2,89.7,205.2,68.7,216.9,80.6z"/>
			<path class="st9" d="M231.7,8c-17.7,8.6-30.2-15.9-42,6C203.4,2.8,218,26.2,231.7,8z"/>
			<polygon class="st0" points="16.5,232.5 24.6,208.4 59.1,208.4 63.5,195.4 17,195.4 0,245.5 46.6,245.5 51,232.5 			"/>
			<polygon class="st0" points="86.5,195.4 50.9,245.5 64.5,245.5 84.9,216.3 85.2,232.5 77.7,232.5 73.3,245.5 99.1,245.5 
				97.4,195.4 			"/>
			<polygon class="st0" points="132.5,195.4 120.4,195.4 103.5,245.5 150,245.5 154.4,232.5 119.9,232.5 			"/>
			<polygon class="st0" points="179.8,208.4 214.3,208.4 218.7,195.4 172.1,195.4 155.2,245.5 201.7,245.5 206.1,232.5 171.7,232.5 
							"/>
			<path class="st0" d="M223.8,195.4l-16.9,50.1h46.6l16.9-50.1H223.8z M245.8,232.5h-22.4l8.2-24.1H254L245.8,232.5z"/>
			<polygon class="st0" points="468.4,210.2 475.1,196.1 435.5,196.1 428.8,210.2 442,210.2 425,245.6 438.3,245.6 455.2,210.2 			
				"/>
			<polygon class="st0" points="504.9,196.1 487.9,231.4 474.7,231.4 491.7,196.1 478.4,196.1 454.8,245.6 494.4,245.6 518.1,196.1 
							"/>
			<line class="st10" x1="545.8" y1="227.9" x2="545.8" y2="227.9"/>
			<path class="st0" d="M561,196.1h-39.6l-23.7,49.5h13.2l8.4-17.7h3.7l1.1,17.7h15.3l-1.1-17.7h7.5L561,196.1z M539.3,213.8h-13.2
				l1.7-3.5H541L539.3,213.8z"/>
			<path class="st0" d="M564.3,196.1l-23.7,49.5h39.6l23.7-49.5H564.3z M573.8,231.4h-13.2l1.7-3.5h13.2L573.8,231.4z M569.1,213.8
				l1.7-3.5H584l-1.7,3.5H569.1z"/>
			<path class="st0" d="M607.2,196.1l-23.7,49.5h39.6l23.7-49.5H607.2z M616.7,231.4h-13.2l10.2-21.2h13.2L616.7,231.4z"/>
			<polygon class="st0" points="683,210.2 689.8,196.1 650.2,196.1 634.9,227.9 661.3,227.9 659.7,231.4 633.2,231.4 626.5,245.6 
				666.1,245.6 681.3,213.8 654.9,213.8 656.6,210.2 			"/>
		</g>
	</g>
</g>
</svg>
