<?xml version="1.0" encoding="utf-8"?>
<!-- Generator: Adobe Illustrator 26.1.0, SVG Export Plug-In . SVG Version: 6.00 Build 0)  -->
<svg version="1.1" id="Capa_1" xmlns="http://www.w3.org/2000/svg" xmlns:xlink="http://www.w3.org/1999/xlink" x="0px" y="0px"
	 viewBox="0 0 97.2 50" style="enable-background:new 0 0 97.2 50;" xml:space="preserve">
<style type="text/css">
	.st0{fill:none;}
	.st1{fill:#E0E0E0;}
</style>
<g id="a">
</g>
<g id="b">
	<g id="c">
		<g>
			<polygon class="st0" points="94.3,46.1 94.3,3.9 59.2,25 			"/>
			<path class="st0" d="M50.3,27L90.7,2.8H6.5L46.9,27C47.9,27.7,49.2,27.7,50.3,27L50.3,27z"/>
			<polygon class="st0" points="2.8,3.9 2.8,46.1 38,25 			"/>
			<path class="st0" d="M51.7,29.5c-1,0.6-2.1,0.9-3.2,0.9s-2.2-0.3-3.2-0.9l-4.7-2.8L6.5,47.2h84.1L56.5,26.6L51.7,29.5z"/>
			<path class="st1" d="M97.2,1.4c0-0.1,0-0.2-0.1-0.4c0,0,0,0,0,0s0,0,0,0c0-0.1-0.1-0.3-0.2-0.4l0,0c-0.1-0.1-0.2-0.2-0.3-0.3
				c0,0,0,0-0.1,0c-0.1-0.1-0.2-0.1-0.3-0.2c0,0-0.1,0-0.1,0C96.1,0,95.9,0,95.8,0H1.4C1.3,0,1.1,0,1,0.1c0,0-0.1,0-0.1,0
				c-0.1,0-0.2,0.1-0.3,0.2c0,0,0,0-0.1,0C0.4,0.4,0.3,0.5,0.3,0.6l0,0C0.2,0.7,0.1,0.9,0.1,1c0,0,0,0,0,0c0,0,0,0,0,0
				C0,1.2,0,1.3,0,1.4v47.2c0,0.1,0,0.2,0.1,0.3c0,0,0,0,0,0s0,0,0,0c0,0.1,0.1,0.3,0.2,0.4l0,0c0.1,0.1,0.2,0.2,0.3,0.3
				c0,0,0,0,0.1,0c0.1,0.1,0.2,0.1,0.4,0.2c0,0,0.1,0,0.1,0C1.1,50,1.3,50,1.4,50h94.3c0.1,0,0.3,0,0.4-0.1c0,0,0.1,0,0.1,0
				c0.1,0,0.2-0.1,0.3-0.2c0,0,0,0,0.1,0c0.1-0.1,0.2-0.2,0.3-0.3l0,0c0.1-0.1,0.1-0.2,0.2-0.4c0,0,0,0,0,0c0,0,0,0,0,0
				c0-0.1,0.1-0.2,0.1-0.3L97.2,1.4L97.2,1.4z M94.3,46.1L59.2,25L94.3,3.9C94.3,3.9,94.3,46.1,94.3,46.1z M90.6,2.8L50.3,27
				c-1,0.6-2.3,0.6-3.4,0L6.5,2.8C6.5,2.8,90.7,2.8,90.6,2.8z M2.8,3.9L38,25L2.8,46.1V3.9z M6.5,47.2l34.2-20.5l4.7,2.8
				c1,0.6,2.1,0.9,3.2,0.9s2.2-0.3,3.2-0.9l4.7-2.8l34.2,20.5H6.5z"/>
		</g>
	</g>
</g>
</svg>
