<?xml version="1.0" encoding="utf-8"?>
<!-- Generator: Adobe Illustrator 26.1.0, SVG Export Plug-In . SVG Version: 6.00 Build 0)  -->
<svg version="1.1" id="Capa_1" xmlns="http://www.w3.org/2000/svg" xmlns:xlink="http://www.w3.org/1999/xlink" x="0px" y="0px"
	 viewBox="0 0 36.3 50" style="enable-background:new 0 0 36.3 50;" xml:space="preserve">
<style type="text/css">
	.st0{fill:none;}
	.st1{fill:#E0E0E0;}
</style>
<g id="a">
</g>
<g id="b">
	<g id="c">
		<g>
			<path class="st0" d="M18.1,13.1c-2.2,0-3.9,1.8-3.9,3.9S16,21,18.1,21s3.9-1.8,3.9-3.9S20.3,13.1,18.1,13.1z"/>
			<path class="st0" d="M18.1,2.8C9.7,2.8,2.8,9.7,2.8,18.1c0,5.8,7.9,18.8,15.3,29c7.4-10.2,15.3-23.1,15.3-29
				C33.4,9.7,26.6,2.8,18.1,2.8z M18.1,23.8c-3.7,0-6.8-3-6.8-6.8s3-6.8,6.8-6.8s6.8,3,6.8,6.8S21.9,23.8,18.1,23.8z"/>
			<path class="st1" d="M18.1,0C8.1,0,0,8.1,0,18.1c0,8,11.1,24.2,15.9,30.7c0.5,0.7,1.4,1.1,2.2,1.1l0,0c0.9,0,1.7-0.4,2.2-1.1
				c4.8-6.6,15.9-22.7,15.9-30.7C36.3,8.1,28.1,0,18.1,0z M18.1,47.1C10.7,36.9,2.8,24,2.8,18.1c0-8.4,6.9-15.3,15.3-15.3
				s15.3,6.9,15.3,15.3C33.4,24,25.5,36.9,18.1,47.1z"/>
			<path class="st1" d="M18.1,10.3c-3.7,0-6.8,3-6.8,6.8s3,6.8,6.8,6.8s6.8-3,6.8-6.8S21.9,10.3,18.1,10.3z M18.1,21
				c-2.2,0-3.9-1.8-3.9-3.9s1.8-3.9,3.9-3.9s3.9,1.8,3.9,3.9S20.3,21,18.1,21z"/>
		</g>
	</g>
</g>
</svg>
