<?xml version="1.0" encoding="UTF-8"?><svg xmlns="http://www.w3.org/2000/svg" viewBox="0 0 405 405"><defs><style>.d{fill:#e0e0e0;}</style></defs><g id="a"/><g id="b"><g id="c"><g><path class="d" d="M211.85,77.98c16.39,0,31.8,6.38,43.4,17.98,.98,.98,2.56,.98,3.54,0,.98-.98,.98-2.56,0-3.54-12.54-12.54-29.2-19.44-46.93-19.44-2.3,0-4.59,.12-6.85,.35V39.59c0-1.38-1.12-2.5-2.5-2.5s-2.5,1.12-2.5,2.5v34.46c-13.22,2.37-25.38,8.68-35.08,18.37-12.54,12.53-19.44,29.2-19.44,46.93s6.9,34.4,19.44,46.93c9.62,9.62,21.74,15.97,35.08,18.37v121.98c-2.26,.25-4.55,.39-6.86,.39-16.39,0-31.8-6.38-43.39-17.98-.98-.98-2.56-.98-3.54,0-.98,.98-.98,2.56,0,3.54,12.54,12.54,29.2,19.44,46.93,19.44,2.31,0,4.59-.12,6.86-.35v33.74c0,1.38,1.12,2.5,2.5,2.5s2.5-1.12,2.5-2.5v-34.46c13.21-2.37,25.38-8.68,35.08-18.37,25.87-25.88,25.87-67.98,0-93.86-9.62-9.62-21.75-15.97-35.08-18.37V78.37c2.26-.25,4.55-.39,6.85-.39Zm24.69,144.28c23.92,23.93,23.92,62.86,0,86.79-8.75,8.75-19.67,14.52-31.54,16.83v-120.44c11.97,2.34,22.86,8.13,31.54,16.81Zm-36.54-22.7c-11.97-2.34-22.86-8.13-31.54-16.81-11.59-11.59-17.98-27-17.98-43.4s6.38-31.8,17.98-43.39c8.75-8.75,19.67-14.52,31.54-16.83v120.43Z"/><path class="d" d="M202.5,0C90.84,0,0,90.84,0,202.5s90.84,202.5,202.5,202.5,202.5-90.84,202.5-202.5S314.16,0,202.5,0Zm0,400c-108.9,0-197.5-88.6-197.5-197.5S93.6,5,202.5,5s197.5,88.6,197.5,197.5-88.6,197.5-197.5,197.5Z"/></g></g></g></svg>