<?xml version="1.0" encoding="utf-8"?>
<!-- Generator: Adobe Illustrator 26.1.0, SVG Export Plug-In . SVG Version: 6.00 Build 0)  -->
<svg version="1.1" id="Capa_1" xmlns="http://www.w3.org/2000/svg" xmlns:xlink="http://www.w3.org/1999/xlink" x="0px" y="0px"
	 viewBox="0 0 50 50" style="enable-background:new 0 0 50 50;" xml:space="preserve">
<style type="text/css">
	.st0{fill:none;}
	.st1{fill:#E0E0E0;}
</style>
<g id="a">
</g>
<g id="b">
	<g id="c">
		<g>
			<path class="st0" d="M43.6,4.2c-1.7-1.8-4.3-1.8-6.2-0.1c-0.8,0.7-1.4,1.6-1.7,2.7c-0.2,0.7-0.4,1.4-0.6,2.2
				c-0.4,1.3-0.7,2.5-1,3.8c-0.3,1.4,0.1,2.7,1.2,3.9c0.6,0.6,1.2,1.2,1.8,1.8c0.6,0.6,0.8,1.3,0.5,2.1c-2.7,8.6-8.5,14.4-17.1,17.2
				c-0.6,0.2-1.4,0.2-2.2-0.5l-0.5-0.5c-0.5-0.6-1-1.1-1.6-1.5c-1.1-0.9-2.4-1.2-3.9-0.9c-2.3,0.6-4.2,1.1-6,1.6
				c-1.8,0.6-2.9,1.8-3.5,3.7L2.9,40v0.9c0,0.1,0,0.2,0.1,0.3c0.2,0.9,0.5,1.7,1.2,2.3l0.2,0.2c0.5,0.5,1.1,1.1,1.6,1.6
				c0.9,1,1.7,1.7,2.7,1.9h2l0.7-0.1c0.6-0.1,1.2-0.1,1.9-0.2c4.1-0.4,8.1-1.6,12-3.4c4.7-2.2,8.8-5.2,12.2-9.1
				c3.7-4.1,6.4-9,8.1-14.3c0.9-3,1.5-6,1.6-9c0-0.7,0.1-1.3,0.1-2c0-1-0.3-1.8-1-2.4C45.3,5.9,44.5,5.1,43.6,4.2L43.6,4.2z"/>
			<path class="st1" d="M48.2,4.8c-0.9-0.8-1.7-1.7-2.5-2.5c-2.7-2.9-7-3-10.1-0.3C34.2,3,33.4,4.4,33,6c-0.2,0.7-0.4,1.4-0.6,2.1
				c-0.4,1.3-0.7,2.6-1,4c-0.5,2.4,0.2,4.6,1.9,6.4c0.5,0.5,0.9,1,1.5,1.5c-2.5,7.4-7.3,12.3-14.7,14.7l-0.1-0.1
				c-0.6-0.6-1.2-1.2-1.9-1.8c-1.9-1.5-4-2-6.3-1.5c-2.4,0.6-4.3,1.1-6.2,1.7C2.9,34,1,35.9,0.2,38.8L0,39.8v1.5l0.1,0.4
				c0.3,1.5,0.9,2.8,2,3.8l0.2,0.2c0.5,0.5,1,1,1.5,1.5c1,1.1,2.2,2.2,3.8,2.6L7.7,50h3.1l0.8-0.1c0.6-0.1,1.3-0.1,1.9-0.2
				c4.4-0.5,8.8-1.7,12.9-3.6c5-2.3,9.4-5.6,13.1-9.7c4-4.5,6.9-9.6,8.7-15.4c1-3.2,1.6-6.4,1.7-9.6c0-0.7,0.1-1.4,0.1-2.1
				C50,7.5,49.4,6,48.2,4.8L48.2,4.8z M47.1,11.2c-0.2,3-0.7,6-1.6,9c-1.6,5.3-4.4,10.1-8.1,14.3c-3.4,3.8-7.5,6.9-12.2,9.1
				c-3.8,1.8-7.9,2.9-12,3.4C12.6,47,12,47,11.4,47.1l-0.7,0.1h-2c-1-0.2-1.8-0.9-2.7-1.9c-0.5-0.6-1.1-1.1-1.6-1.6l-0.2-0.2
				c-0.6-0.6-1-1.4-1.2-2.3c0-0.1,0-0.2-0.1-0.3V40L3,39.5c0.5-1.9,1.7-3.1,3.5-3.7c1.8-0.5,3.7-1.1,6-1.6c1.4-0.3,2.7,0,3.9,0.9
				c0.5,0.5,1.1,1,1.6,1.5l0.5,0.5c0.8,0.8,1.6,0.7,2.2,0.5c8.6-2.8,14.4-8.5,17.1-17.2c0.2-0.8,0.1-1.5-0.5-2.1
				c-0.6-0.6-1.2-1.2-1.8-1.8c-1.1-1.2-1.5-2.5-1.2-3.9c0.3-1.3,0.6-2.5,1-3.8c0.2-0.7,0.4-1.4,0.6-2.2c0.3-1.1,0.8-1.9,1.7-2.7
				c2-1.7,4.6-1.6,6.2,0.1c0.8,0.9,1.7,1.8,2.6,2.6c0.7,0.6,1,1.4,1,2.4C47.1,9.9,47.1,10.5,47.1,11.2L47.1,11.2z"/>
			<path class="st1" d="M9.8,24.9L9.8,24.9c0.8,0,1.5-0.7,1.5-1.5c0.1-5.9,4.9-10.6,10.7-10.6c0,0,0.1,0,0.1,0
				c0.9,0,1.5-0.6,1.5-1.5c0-0.8-0.6-1.5-1.5-1.5C14.7,9.7,8.4,15.8,8.3,23.4C8.3,24.2,8.9,24.9,9.8,24.9L9.8,24.9z"/>
			<path class="st1" d="M22.2,15.6c-4.7-0.1-8.5,3.7-8.6,8.3c0,0.8,0.6,1.5,1.5,1.5h0c0.8,0,1.5-0.7,1.5-1.5c0-3,2.5-5.4,5.4-5.4
				c0,0,0,0,0.1,0c0.8,0,1.5-0.6,1.5-1.5S23,15.6,22.2,15.6L22.2,15.6z"/>
		</g>
	</g>
</g>
</svg>
