<?xml version="1.0" encoding="utf-8"?>
<!-- Generator: Adobe Illustrator 26.1.0, SVG Export Plug-In . SVG Version: 6.00 Build 0)  -->
<svg version="1.1" id="Capa_1" xmlns="http://www.w3.org/2000/svg" xmlns:xlink="http://www.w3.org/1999/xlink" x="0px" y="0px"
	 viewBox="0 0 497.6 403" style="enable-background:new 0 0 497.6 403;" xml:space="preserve">
<style type="text/css">
	.st0{fill:#E0E0E0;}
</style>
<g id="a">
</g>
<g>
	<path class="st0" d="M52.5,206c0,0,0.1,0,0.1,0c0,0,0.1,0,0.1,0c0.6,0,1.3-0.2,1.8-0.7l50-50c1-1,1-2.6,0-3.5c-1-1-2.6-1-3.5,0
		l-45.8,45.8C57.8,90.9,145.4,5,252.6,5c43.8,0,85.3,14,120,40.6c33.6,25.7,58.4,62.2,70,102.7c0.4,1.3,1.8,2.1,3.1,1.7
		c1.3-0.4,2.1-1.8,1.7-3.1c-11.8-41.5-37.3-78.9-71.7-105.3C340.1,14.4,297.5,0,252.6,0C142.6,0,52.8,88.2,50.2,197.6L4.3,151.7
		c-1-1-2.6-1-3.5,0c-1,1-1,2.6,0,3.5l50,50C51.2,205.8,51.9,206,52.5,206z"/>
	<path class="st0" d="M496.9,248.2l-50-50c-0.5-0.5-1.1-0.7-1.8-0.7c0,0-0.1,0-0.1,0c0,0-0.1,0-0.1,0c-0.6,0-1.3,0.2-1.8,0.7l-50,50
		c-1,1-1,2.6,0,3.5c1,1,2.6,1,3.5,0l45.8-45.8C439.5,312.4,352,398,245,398c-43.8,0-85.3-14-120-40.6c-33.6-25.7-58.4-62.2-70-102.7
		c-0.4-1.3-1.8-2.1-3.1-1.7c-1.3,0.4-2.1,1.8-1.7,3.1C62,297.6,87.5,335,121.9,361.3c35.6,27.2,78.1,41.7,123,41.7
		c109.9,0,199.6-88,202.4-197.1l45.9,45.9c1,1,2.6,1,3.5,0C497.8,250.8,497.8,249.2,496.9,248.2z"/>
</g>
</svg>
