<?xml version="1.0" encoding="UTF-8"?><svg xmlns="http://www.w3.org/2000/svg" viewBox="0 0 658.89 405"><defs><style>.d{fill:#e0e0e0;}</style></defs><g id="a"/><g id="b"><g id="c"><g><path class="d" d="M430.2,0H145.56c-10.46,0-18.98,8.51-18.98,18.98v18.55h-41.71c-1.38,0-2.5,1.12-2.5,2.5s1.12,2.5,2.5,2.5h41.71v25.82H43.69c-1.38,0-2.5,1.12-2.5,2.5s1.12,2.5,2.5,2.5H126.58v26.47H2.5c-1.38,0-2.5,1.12-2.5,2.5s1.12,2.5,2.5,2.5H126.58v228.23c0,10.46,8.51,18.97,18.98,18.97h42.79c1.31,29.44,25.66,52.98,55.42,52.98s54.1-23.55,55.42-52.98h131.02c10.46,0,18.98-8.51,18.98-18.97V18.98c0-10.46-8.51-18.98-18.98-18.98ZM243.77,400c-27.83,0-50.48-22.64-50.48-50.48s22.65-50.48,50.48-50.48,50.48,22.64,50.48,50.48-22.65,50.48-50.48,50.48Zm200.41-66.96c0,7.71-6.27,13.97-13.98,13.97h-131.02c-1.31-29.43-25.66-52.98-55.42-52.98s-54.1,23.54-55.42,52.98h-42.79c-7.71,0-13.98-6.27-13.98-13.97V104.82h35.67c1.38,0,2.5-1.12,2.5-2.5s-1.12-2.5-2.5-2.5h-35.67v-26.47h35.67c1.38,0,2.5-1.12,2.5-2.5s-1.12-2.5-2.5-2.5h-35.67v-25.82h35.67c1.38,0,2.5-1.12,2.5-2.5s-1.12-2.5-2.5-2.5h-35.67V18.98c0-7.71,6.27-13.98,13.98-13.98H430.2c7.71,0,13.98,6.27,13.98,13.98V333.04Z"/><path class="d" d="M653.33,153.46l-59.89-59.89c-3.58-3.58-8.35-5.56-13.42-5.56h-100.4c-10.46,0-18.97,8.51-18.97,18.98v226.06c0,10.46,8.51,18.97,18.97,18.97h24.73c1.31,29.44,25.66,52.98,55.42,52.98s54.1-23.55,55.42-52.98h24.72c10.46,0,18.98-8.51,18.98-18.97V166.88c0-5.07-1.97-9.83-5.56-13.42Zm-93.56,246.54c-27.83,0-50.48-22.64-50.48-50.48s22.64-50.48,50.48-50.48,50.48,22.64,50.48,50.48-22.64,50.48-50.48,50.48Zm94.11-66.96c0,7.71-6.27,13.97-13.98,13.97h-24.72c-1.31-29.43-25.66-52.98-55.42-52.98s-54.1,23.54-55.42,52.98h-24.73c-7.71,0-13.97-6.27-13.97-13.97V106.99c0-7.71,6.27-13.98,13.97-13.98h100.4c3.73,0,7.24,1.45,9.88,4.09l59.89,59.89c2.64,2.64,4.09,6.15,4.09,9.88v166.17Z"/><path class="d" d="M576.89,108.26c-.47-.47-1.1-.73-1.77-.73h-33.39c-1.38,0-2.5,1.12-2.5,2.5v91.83c0,1.38,1.12,2.5,2.5,2.5h86.67c1.38,0,2.5-1.12,2.5-2.5v-38.55c0-.66-.26-1.3-.73-1.77l-53.28-53.28Zm49.01,91.1h-81.67V112.52h29.86l51.81,51.81v35.02Z"/></g></g></g></svg>