<?xml version="1.0" encoding="utf-8"?>
<!-- Generator: Adobe Illustrator 26.1.0, SVG Export Plug-In . SVG Version: 6.00 Build 0)  -->
<svg version="1.1" id="Capa_1" xmlns="http://www.w3.org/2000/svg" xmlns:xlink="http://www.w3.org/1999/xlink" x="0px" y="0px"
	 viewBox="0 0 50.7 50.5" style="enable-background:new 0 0 50.7 50.5;" xml:space="preserve">
<style type="text/css">
	.st0{fill:none;}
	.st1{fill:#E0E0E0;}
</style>
<g id="a">
</g>
<g id="b">
	<g id="c">
		<g>
			<path class="st0" d="M20.5,18c-0.1-0.7-0.3-1.4-0.5-2.1l0-0.1c-0.1-0.4-0.2-0.8-0.3-1.1c-0.1-0.5-0.4-0.9-0.8-1.3
				c-0.5-0.4-1-0.6-1.5-0.6c-0.5,0-1.1,0.2-1.5,0.6c-0.5,0.5-1,1-1.5,1.5c-0.3,0.3-0.4,0.6-0.4,1.1l0,0c0,0.4,0,0.7,0.1,1.1
				c0.1,1.6,0.4,3.3,0.9,4.9c0.9,3,2.4,5.6,4.5,7.9c1.9,2.1,4.2,3.8,6.8,5c2.1,1,4.4,1.6,6.6,1.8c0.3,0,0.7,0.1,1,0.1l0.4,0h1.1
				c0.4-0.1,0.8-0.4,1.3-0.9c0.3-0.3,0.6-0.6,0.9-0.9l0.1-0.1c0.3-0.3,0.5-0.7,0.5-1.1c0,0,0-0.1,0-0.2v-0.5L38.1,33
				c-0.3-1-0.8-1.5-1.7-1.8c-1-0.3-2.1-0.6-3.3-0.9c-0.7-0.2-1.3,0-1.9,0.4c-0.3,0.2-0.6,0.5-0.9,0.8l-0.2,0.3
				c-0.4,0.4-1,0.6-1.6,0.4c-5-1.6-8.3-4.9-9.9-9.9c-0.2-0.6,0-1.1,0.4-1.6c0.3-0.3,0.7-0.6,1-1C20.5,19.3,20.7,18.7,20.5,18
				L20.5,18z"/>
			<path class="st0" d="M23.7,3.1C12.6,4,3.8,13,3.3,24.2C3.1,28.1,4,32,5.8,35.4c0.3,0.6,0.4,1.2,0.2,1.8l-2.7,9l3.6-0.8l6.2-1.3
				c0.1,0,0.2,0,0.3,0c0.3,0,0.5,0.1,0.8,0.2c3.9,2.3,8.4,3.4,13,3.1C37.3,46.7,46.9,37.2,47.7,27c0.5-6.5-1.8-12.9-6.4-17.5
				S30.2,2.6,23.7,3.1L23.7,3.1z M40.5,34.2c-0.2,0.9-0.6,1.7-1.2,2.3l-0.1,0.1c-0.3,0.3-0.6,0.5-0.8,0.8c-0.5,0.6-1.2,1.2-2.2,1.5
				l-0.1,0.2h-2l-0.5,0c-0.3,0-0.7-0.1-1.1-0.1c-2.5-0.3-5-1-7.4-2c-2.9-1.3-5.4-3.2-7.5-5.5c-2.3-2.5-4-5.5-5-8.8
				c-0.6-1.8-0.9-3.7-1-5.5c0-0.4,0-0.8-0.1-1.2c0-1.1,0.4-2,1.1-2.8c0.5-0.5,0.9-0.9,1.4-1.4c1.6-1.8,4.3-1.9,6.2-0.2
				c0.8,0.7,1.3,1.5,1.6,2.5c0.1,0.4,0.2,0.8,0.3,1.2c0.2,0.7,0.4,1.5,0.6,2.3c0.3,1.5-0.1,2.8-1.2,4c-0.2,0.2-0.4,0.5-0.7,0.7
				c1.4,3.9,3.9,6.4,7.8,7.7c0.3-0.3,0.6-0.6,1-0.9c1.1-0.9,2.5-1.2,3.9-0.9c1.3,0.3,2.5,0.6,3.5,0.9c1.7,0.5,2.8,1.7,3.3,3.4
				l0.1,0.6v1L40.5,34.2L40.5,34.2z"/>
			<path class="st1" d="M40.4,32.4c-0.5-1.7-1.6-2.9-3.3-3.4c-1-0.3-2.2-0.6-3.5-0.9c-1.4-0.3-2.8,0-3.9,0.9c-0.4,0.3-0.7,0.6-1,0.9
				c-3.9-1.3-6.4-3.9-7.8-7.7c0.2-0.2,0.5-0.5,0.7-0.7c1.1-1.1,1.5-2.5,1.2-4c-0.2-0.8-0.4-1.5-0.6-2.3c-0.1-0.4-0.2-0.8-0.3-1.2
				c-0.3-1-0.8-1.8-1.6-2.5c-1.9-1.6-4.6-1.5-6.2,0.2c-0.4,0.5-0.9,0.9-1.4,1.4c-0.8,0.7-1.1,1.7-1.1,2.8c0,0.4,0,0.8,0.1,1.2
				c0.1,1.8,0.4,3.7,1,5.5c1,3.3,2.7,6.2,5,8.8c2.1,2.3,4.6,4.2,7.5,5.5c2.4,1.1,4.8,1.8,7.4,2c0.3,0,0.7,0.1,1.1,0.1l0.5,0h2
				l0.1-0.2c1-0.3,1.6-1,2.2-1.5c0.3-0.3,0.5-0.5,0.8-0.8l0.1-0.1c0.7-0.6,1.1-1.4,1.2-2.3l0.1-0.3v-1L40.4,32.4L40.4,32.4z
				 M19,20.8c-0.4,0.4-0.6,1-0.4,1.6c1.6,5,4.9,8.3,9.9,9.9c0.6,0.2,1.2,0,1.6-0.4l0.2-0.3c0.3-0.3,0.6-0.6,0.9-0.8
				c0.6-0.5,1.2-0.6,1.9-0.4c1.3,0.3,2.3,0.6,3.3,0.9c0.9,0.3,1.4,0.8,1.7,1.8l0.1,0.2v0.5c0,0,0,0.1,0,0.2
				c-0.1,0.5-0.3,0.8-0.5,1.1L37.5,35c-0.3,0.3-0.6,0.6-0.9,0.9c-0.5,0.5-0.8,0.8-1.3,0.9h-1.1l-0.4,0c-0.3,0-0.7-0.1-1-0.1
				c-2.3-0.2-4.5-0.8-6.6-1.8c-2.6-1.2-4.9-2.9-6.8-5c-2.1-2.3-3.6-4.9-4.5-7.9c-0.5-1.6-0.8-3.3-0.9-5c0-0.4,0-0.7-0.1-1.1l0,0
				c0-0.5,0.1-0.8,0.4-1.1c0.5-0.5,1-1,1.5-1.5c0.4-0.4,0.9-0.6,1.5-0.6s1,0.2,1.5,0.6c0.4,0.4,0.7,0.8,0.8,1.3
				c0.1,0.4,0.2,0.8,0.3,1.1l0,0.1c0.2,0.7,0.4,1.4,0.5,2.1s0,1.3-0.6,1.9C19.6,20.2,19.3,20.5,19,20.8L19,20.8z"/>
			<path class="st1" d="M43.3,7.4c-5.2-5.2-12.5-7.9-19.9-7.3C10.8,1.1,0.9,11.4,0.3,24C0.1,28.4,1,32.8,3,36.6l-1.5,5.2l-1.4,4.4
				c-0.3,0.9-0.1,1.8,0.6,2.4c0.6,0.7,1.5,0.9,2.4,0.7l4.4-1l5.6-1.2c3.8,2.2,8,3.3,12.4,3.3c0.6,0,1.2,0,1.9-0.1
				C39.1,49.6,49.7,39,50.7,27.3C51.2,19.9,48.6,12.6,43.3,7.4z M47.7,27c-0.8,10.1-10.4,19.6-20.5,20.4c-4.6,0.3-9.1-0.7-13-3.1
				c-0.2-0.1-0.5-0.2-0.8-0.2c-0.1,0-0.2,0-0.3,0l-6.2,1.3l-3.6,0.8l2.7-9C6.1,36.7,6,36,5.7,35.4C3.9,32,3.1,28.1,3.3,24.2
				C3.8,13,12.6,4,23.7,3.1c6.5-0.5,12.9,1.8,17.5,6.4S48.2,20.5,47.7,27z"/>
		</g>
	</g>
</g>
</svg>
